<svg viewBox="0 0 256 256" xmlns="http://www.w3.org/2000/svg"> <path fill="none" stroke="black" d="M 181,238 C 178,239 173,241 174,240 M 134,230 C 133,233 131,236 132,235 M 132,235 C 133,233 136,230 141,237 M 112,229 C 110,232 92,233 110,232 M 160,227 C 159,230 159,234 164,238 M 161,227 C 163,228 165,235 159,232 M 148,227 C 146,230 145,240 148,242 M 148,242 C 152,241 155,239 154,233 M 149,227 C 152,229 153,232 155,238 M 155,238 C 154,240 151,242 145,233 M 176,225 C 173,226 170,230 177,236 M 175,226 C 179,228 178,234 170,233 M 186,224 C 184,227 182,232 189,236 M 187,224 C 191,227 192,233 182,234 M 198,221 C 197,223 198,233 203,231 M 199,222 C 203,225 201,233 198,231 M 113,216 C 112,220 105,227 107,227 M 115,215 C 116,230 116,235 122,239 M 122,239 C 124,239 127,236 130,232 M 130,232 C 129,233 127,236 124,239 M 196,187 C 198,191 200,195 201,210 M 201,210 C 202,214 199,216 193,217 M 193,217 C 191,218 187,220 180,221 M 180,221 C 174,222 171,224 167,225 M 167,225 C 166,221 165,208 165,204 M 165,204 C 165,204 165,208 166,222 M 166,222 C 167,225 170,226 171,224 M 171,224 C 173,223 180,221 187,220 M 187,220 C 190,219 193,217 199,216 M 199,216 C 202,215 201,200 199,194 M 199,186 C 200,188 201,191 203,194 M 203,194 C 204,200 205,220 207,224 M 207,224 C 208,227 210,233 222,235 M 222,235 C 228,236 233,239 230,241 M 230,241 C 226,242 208,243 193,245 M 193,245 C 168,246 92,245 77,243 M 77,243 C 65,242 55,241 52,239 M 52,239 C 54,236 63,235 74,233 M 74,233 C 80,232 85,234 90,236 M 90,236 C 98,237 110,236 110,239 M 110,239 C 111,241 120,242 112,241 M 112,241 C 111,238 112,236 98,237 M 98,237 C 90,236 85,234 82,233 M 82,233 C 79,231 72,225 69,222 M 69,222 C 66,221 60,214 58,210 M 58,210 C 54,207 47,207 38,206 M 38,206 C 36,205 27,197 29,195 M 29,195 C 34,197 41,197 45,195 M 45,195 C 54,200 55,203 60,209 M 60,209 C 62,212 60,209 58,205 M 58,205 C 55,201 50,195 42,196 M 42,196 C 36,197 31,197 27,198 M 27,198 C 29,199 37,206 47,207 M 47,207 C 52,206 58,211 60,215 M 60,215 C 61,217 68,222 72,226 M 72,226 C 76,229 80,232 73,234 M 73,234 C 63,235 54,236 52,238 M 52,238 C 52,240 58,241 66,243 M 66,243 C 78,244 113,245 169,245 M 169,245 C 194,244 219,243 227,241 M 227,241 C 231,240 232,236 222,235 M 222,235 C 211,234 208,232 207,224 M 207,224 C 206,221 204,210 203,194 M 70,178 C 67,183 65,187 64,198 M 64,198 C 65,204 68,210 69,214 M 69,214 C 70,217 72,219 78,224 M 78,224 C 72,219 70,215 68,212 M 68,212 C 66,208 65,199 65,192 M 137,171 C 134,172 134,179 133,177 M 133,177 C 135,172 141,176 139,179 M 139,179 C 137,183 129,184 128,183 M 128,183 C 134,184 139,182 140,177 M 69,170 C 71,174 73,176 77,177 M 77,177 C 81,178 86,180 92,181 M 92,181 C 96,182 112,184 117,185 M 117,185 C 120,186 124,188 128,189 M 128,189 C 131,190 140,190 145,189 M 145,189 C 149,188 158,193 159,196 M 159,196 C 160,200 162,210 163,223 M 163,223 C 164,225 163,218 161,209 M 161,209 C 160,198 159,194 154,188 M 154,188 C 152,187 146,188 143,190 M 143,190 C 139,191 129,190 125,188 M 125,188 C 123,187 118,186 115,184 M 115,184 C 111,183 93,182 89,180 M 89,180 C 85,179 78,178 74,176 M 190,167 C 189,169 187,173 170,191 M 170,191 C 182,180 187,173 190,169 M 70,163 C 71,166 73,169 77,173 M 77,173 C 80,174 86,176 100,177 M 100,177 C 107,178 113,180 112,179 M 112,179 C 107,178 92,177 85,175 M 85,175 C 80,174 77,173 72,167 M 207,156 C 206,158 204,162 197,166 M 197,166 C 195,166 189,165 185,162 M 185,162 C 184,164 182,167 180,171 M 180,171 C 179,173 175,178 173,182 M 173,182 C 170,186 167,190 165,194 M 165,194 C 163,195 165,193 170,187 M 170,187 C 173,183 175,179 179,174 M 179,174 C 180,172 182,168 184,165 M 184,165 C 185,163 188,164 192,166 M 192,166 C 197,167 191,174 190,177 M 190,177 C 188,180 185,184 183,188 M 183,188 C 181,191 174,197 177,196 M 177,196 C 178,194 184,187 186,183 M 186,183 C 187,181 191,176 193,172 M 193,172 C 195,169 199,169 195,174 M 195,174 C 193,177 191,181 191,182 M 191,182 C 193,179 195,175 199,170 M 201,149 C 202,151 201,157 189,158 M 189,158 C 187,157 197,158 202,156 M 225,139 C 223,140 218,144 214,146 M 214,146 C 214,146 218,144 222,141 M 135,139 C 137,140 141,141 145,143 M 145,143 C 147,144 151,145 154,147 M 154,147 C 156,148 159,149 163,151 M 163,151 C 165,152 170,153 173,155 M 173,155 C 175,156 178,157 181,163 M 181,163 C 180,165 178,168 176,172 M 176,172 C 174,175 171,179 168,184 M 168,184 C 165,188 165,189 168,184 M 168,184 C 171,180 174,176 176,172 M 176,172 C 178,169 180,166 181,163 M 181,163 C 183,160 186,160 190,162 M 190,162 C 192,163 201,162 203,159 M 203,159 C 192,163 189,161 186,160 M 186,160 C 185,157 181,160 182,157 M 182,157 C 181,159 177,156 173,155 M 173,155 C 171,154 167,152 163,151 M 163,151 C 161,150 158,148 152,146 M 152,146 C 150,145 147,143 142,142 M 108,139 C 103,140 98,142 100,141 M 100,141 C 104,140 118,139 123,141 M 123,141 C 129,142 128,141 119,140 M 223,131 C 225,135 222,137 219,138 M 219,138 C 216,140 210,145 204,149 M 204,149 C 206,148 211,145 217,140 M 217,140 C 220,138 225,136 228,134 M 176,113 C 171,114 170,115 176,113 M 172,108 C 169,109 164,111 165,110 M 211,106 C 210,108 205,110 202,108 M 202,108 C 202,109 206,109 210,107 M 195,106 C 191,109 186,113 183,114 M 183,114 C 184,116 187,116 192,114 M 196,106 C 197,109 190,114 186,117 M 186,117 C 183,115 186,113 190,111 M 81,99 C 84,103 88,108 94,114 M 94,114 C 101,115 107,117 111,119 M 111,119 C 119,123 121,124 116,123 M 116,123 C 112,120 108,117 102,116 M 102,116 C 96,115 88,108 85,103 M 106,90 C 107,94 108,99 110,102 M 110,102 C 112,105 120,115 122,118 M 122,118 C 123,120 136,128 140,126 M 140,126 C 136,127 137,125 125,116 M 125,116 C 124,114 124,115 136,127 M 136,127 C 130,128 122,119 121,116 M 121,116 C 120,114 112,105 110,101 M 218,89 C 217,92 215,96 211,101 M 175,89 C 176,91 174,93 169,95 M 169,95 C 165,96 156,97 152,99 M 152,99 C 151,100 156,100 166,99 M 166,99 C 171,98 176,96 176,93 M 173,94 C 175,93 172,97 166,99 M 166,99 C 160,100 152,101 153,99 M 153,99 C 156,98 162,96 169,95 M 211,88 C 208,90 200,90 200,91 M 163,81 C 160,82 170,83 169,85 M 169,85 C 164,86 158,88 151,89 M 151,89 C 148,90 149,90 154,89 M 154,89 C 158,88 164,86 170,85 M 170,85 C 172,84 169,88 163,90 M 163,90 C 158,91 151,92 150,93 M 150,93 C 154,92 159,90 168,89 M 168,89 C 173,88 173,84 169,83 M 109,81 C 108,88 111,92 112,95 M 112,95 C 114,98 119,104 124,107 M 124,107 C 127,109 133,113 134,117 M 134,117 C 135,119 141,120 146,122 M 146,122 C 150,123 155,124 158,126 M 158,126 C 161,127 165,128 168,130 M 168,130 C 170,131 173,132 176,134 M 176,134 C 178,135 182,136 187,136 M 187,136 C 193,135 197,134 201,131 M 201,131 C 198,133 195,134 192,136 M 192,136 C 186,137 183,135 180,135 M 180,135 C 177,134 174,133 171,131 M 171,131 C 169,130 166,129 162,127 M 162,127 C 160,126 156,125 152,123 M 152,123 C 149,122 142,121 138,121 M 138,121 C 135,117 133,114 129,110 M 129,110 C 127,109 121,104 118,101 M 118,101 C 114,96 111,92 109,88 M 184,80 C 185,82 187,85 188,88 M 188,88 C 189,100 187,103 183,109 M 183,109 C 183,110 187,103 189,100 M 162,78 C 154,79 146,81 147,80 M 147,80 C 154,79 164,78 170,80 M 99,77 C 100,79 100,84 101,90 M 101,90 C 102,93 104,92 102,91 M 102,91 C 101,87 100,85 99,80 M 99,80 C 101,80 102,83 105,83 M 105,83 C 106,81 106,80 105,83 M 160,75 C 154,76 148,78 150,77 M 156,69 C 149,70 148,71 156,69 M 202,68 C 199,69 194,76 193,82 M 193,82 C 192,85 192,83 194,77 M 194,77 C 195,75 201,69 209,69 M 209,69 C 217,70 221,71 225,74 M 225,74 C 223,79 222,82 221,83 M 221,83 C 222,81 226,76 225,73 M 225,73 C 223,72 219,70 209,69 M 117,68 C 114,69 114,75 121,72 M 116,69 C 121,68 126,72 122,72 M 122,72 C 120,71 116,72 112,72 M 156,66 C 149,67 144,69 149,67 M 84,64 C 81,68 72,78 70,82 M 70,82 C 69,86 69,100 68,99 M 68,99 C 69,86 70,82 74,77 M 204,61 C 200,63 197,65 195,67 M 199,57 C 195,58 191,61 188,64 M 188,64 C 187,66 185,72 186,71 M 186,71 C 187,67 188,64 194,59 M 194,59 C 196,58 205,57 210,59 M 210,59 C 212,60 216,61 219,63 M 219,63 C 222,64 226,65 232,67 M 232,67 C 232,67 226,65 222,64 M 222,64 C 219,63 216,61 212,60 M 30,51 C 31,53 34,54 38,56 M 38,56 C 41,57 45,58 50,65 M 50,65 C 49,69 50,69 49,61 M 49,61 C 46,59 43,57 38,56 M 193,43 C 188,44 182,48 181,64 M 181,64 C 180,68 178,73 179,72 M 179,72 C 180,68 181,59 184,46 M 184,46 C 186,45 192,44 197,44 M 197,44 C 201,45 206,47 209,49 M 209,49 C 212,51 216,53 219,55 M 219,55 C 221,56 224,57 228,59 M 228,59 C 232,60 231,59 226,58 M 226,58 C 224,57 221,55 218,54 M 218,54 C 216,53 211,49 208,48 M 208,48 C 206,47 203,45 197,44 M 123,39 C 120,40 117,44 123,39 M 123,39 C 128,40 128,43 122,43 M 122,43 C 120,44 119,49 122,43 M 122,43 C 124,42 129,42 128,40 M 47,38 C 39,39 38,40 47,38 M 47,38 C 51,39 56,40 63,46 M 63,46 C 65,49 66,54 66,57 M 66,57 C 67,59 66,64 64,67 M 64,67 C 63,70 62,73 60,77 M 60,77 C 59,79 58,85 56,89 M 56,89 C 53,93 49,93 53,93 M 53,93 C 52,95 57,89 58,83 M 58,83 C 59,80 61,76 62,73 M 62,73 C 63,71 65,67 66,62 M 66,62 C 67,59 67,56 66,51 M 66,51 C 65,49 63,46 61,44 M 179,35 C 180,37 181,45 181,41 M 50,34 C 41,35 33,37 18,38 M 18,38 C 18,38 33,37 41,35 M 41,35 C 50,34 64,35 69,39 M 69,39 C 73,42 75,46 77,49 M 77,49 C 76,59 75,63 72,67 M 72,67 C 70,70 68,74 65,78 M 65,78 C 64,81 63,87 61,96 M 61,96 C 60,99 57,102 49,98 M 49,98 C 45,95 42,94 39,92 M 39,92 C 36,91 37,92 42,94 M 42,94 C 44,95 49,99 53,103 M 53,103 C 58,102 60,100 62,95 M 62,95 C 63,87 64,81 66,78 M 66,78 C 68,75 70,71 73,67 M 73,67 C 75,64 76,59 76,48 M 76,48 C 75,45 73,41 68,37 M 11,26 C 14,28 18,29 23,31 M 23,31 C 39,30 49,29 55,27 M 55,27 C 61,26 83,27 91,34 M 91,34 C 92,36 93,41 93,47 M 93,47 C 92,53 91,57 89,60 M 89,60 C 88,62 85,67 80,73 M 80,73 C 78,76 77,79 75,82 M 75,82 C 74,86 75,96 78,100 M 78,100 C 76,97 74,86 76,82 M 76,82 C 77,80 78,77 82,72 M 82,72 C 85,68 88,63 90,60 M 90,60 C 91,58 92,53 94,46 M 94,46 C 93,41 92,35 87,29 M 87,29 C 85,28 80,27 60,27 M 60,27 C 54,28 45,29 38,31 M 38,31 C 22,30 17,29 13,26 M 147,19 C 148,21 149,24 151,28 M 151,28 C 151,28 149,23 148,19 M 148,19 C 159,20 162,21 166,24 M 166,24 C 172,29 174,33 176,36 M 176,36 C 177,38 178,46 178,50 M 178,50 C 174,47 170,47 171,49 M 171,49 C 173,50 177,54 178,62 M 178,62 C 177,68 173,69 172,67 M 172,67 C 173,65 174,61 175,60 M 175,60 C 174,62 172,65 169,72 M 169,72 C 174,74 184,85 185,86 M 185,86 C 184,84 176,75 172,74 M 172,74 C 169,70 175,71 178,67 M 178,67 C 179,61 177,54 174,50 M 174,50 C 171,48 173,46 180,51 M 180,51 C 179,49 178,41 176,37 M 176,37 C 175,34 173,30 169,25 M 169,25 C 165,22 162,21 158,19 M 114,11 C 110,12 106,14 100,15 M 100,15 C 85,16 62,16 56,17 M 56,17 C 52,18 48,20 42,21 M 42,21 C 39,22 34,24 35,23 M 35,23 C 39,22 44,21 49,19 M 49,19 C 52,18 58,17 63,15 M 63,15 C 85,16 103,15 107,13 M 107,13 C 110,12 129,11 134,13 M 134,13 C 136,14 140,16 146,23 M 146,23 C 147,25 148,31 149,31 M 149,31 C 148,28 146,24 145,20 M 145,20 C 142,18 137,14 134,13 M 114,8 C 109,9 105,11 99,12 M 99,12 C 85,13 62,13 55,14 M 55,14 C 52,15 47,17 42,18 M 42,18 C 38,19 33,21 6,22 M 6,22 C 3,21 3,24 4,29 M 4,29 C 6,32 11,38 12,41 M 12,41 C 13,43 15,46 16,50 M 16,50 C 17,56 19,67 20,75 M 20,75 C 21,78 23,81 24,85 M 24,85 C 25,87 28,91 34,97 M 34,97 C 37,98 41,100 45,101 M 45,101 C 51,109 53,114 57,114 M 57,114 C 61,111 71,106 73,110 M 73,110 C 81,117 78,121 71,129 M 71,129 C 70,131 69,154 67,161 M 67,161 C 66,165 65,169 63,173 M 63,173 C 62,177 61,191 61,196 M 61,196 C 62,204 63,209 65,212 M 65,212 C 66,214 67,217 67,216 M 67,216 C 66,214 63,209 62,204 M 62,204 C 61,196 61,191 62,177 M 62,177 C 63,173 65,169 66,165 M 66,165 C 67,161 69,154 70,131 M 70,131 C 72,128 81,120 82,117 M 82,117 C 73,109 71,105 69,104 M 69,104 C 68,104 57,114 54,115 M 54,115 C 52,110 46,101 41,100 M 41,100 C 38,99 35,97 28,90 M 28,90 C 26,87 24,84 23,81 M 23,81 C 22,79 20,75 19,67 M 19,67 C 18,57 16,49 15,45 M 15,45 C 14,43 12,40 11,37 M 11,37 C 8,33 4,28 3,24 M 3,24 C 4,21 28,22 34,20 M 34,20 C 38,19 44,18 48,16 M 48,16 C 52,15 58,14 63,12 M 63,12 C 85,13 102,12 106,10 M 106,10 C 109,9 129,8 134,10 M 134,10 C 136,11 139,12 144,16 M 144,16 C 159,17 163,18 167,21 M 167,21 C 174,27 183,31 191,33 M 191,33 C 196,34 200,35 203,37 M 203,37 C 205,38 209,40 215,45 M 215,45 C 219,48 223,50 229,55 M 229,55 C 231,56 235,58 240,61 M 240,61 C 242,62 237,67 228,77 M 228,77 C 227,79 226,82 224,85 M 224,85 C 223,87 222,91 220,95 M 220,95 C 219,97 218,101 216,104 M 216,104 C 215,106 213,110 200,115 M 200,115 C 196,116 185,124 182,120 M 182,120 C 180,117 179,108 183,105 M 183,105 C 186,100 187,92 186,99 M 186,99 C 183,104 181,107 178,107 M 178,107 C 177,102 172,103 168,105 M 168,105 C 165,106 161,107 158,109 M 158,109 C 161,108 165,106 168,105 M 168,105 C 171,104 175,102 178,104 M 178,104 C 179,108 180,118 184,123 M 184,123 C 185,125 191,127 207,126 M 207,126 C 211,123 215,122 220,123 M 220,123 C 216,125 212,126 205,132 M 205,132 C 199,137 195,138 192,140 M 192,140 C 188,141 194,139 197,138 M 197,138 C 200,137 211,127 216,125 M 216,125 C 217,127 221,130 216,134 M 216,134 C 212,137 207,140 193,149 M 193,149 C 187,151 182,154 179,152 M 179,152 C 175,150 171,149 168,147 M 168,147 C 166,146 163,145 160,143 M 160,143 C 158,142 155,141 152,139 M 152,139 C 150,138 147,137 144,135 M 144,135 C 142,134 139,133 142,131 M 142,131 C 145,132 150,133 154,135 M 154,135 C 156,136 160,137 163,139 M 163,139 C 165,140 168,141 171,143 M 171,143 C 173,144 177,145 180,147 M 180,147 C 182,148 186,149 183,148 M 183,148 C 181,147 178,145 174,144 M 174,144 C 172,143 169,141 166,140 M 166,140 C 164,139 161,137 156,136 M 156,136 C 154,135 150,133 146,132 M 146,132 C 143,125 146,125 151,126 M 151,126 C 154,127 158,129 162,130 M 162,130 C 166,132 169,134 172,135 M 172,135 C 174,136 178,139 181,140 M 181,140 C 183,141 189,146 189,145 M 189,145 C 184,141 181,140 177,137 M 177,137 C 175,136 172,135 169,133 M 169,133 C 166,132 163,131 160,129 M 160,129 C 157,128 152,127 148,125 M 148,125 C 145,124 142,131 137,131 M 137,131 C 134,132 130,132 127,132 M 127,132 C 126,130 119,129 111,123 M 111,123 C 108,121 105,120 99,118 M 99,118 C 93,119 86,120 82,123 M 82,123 C 76,128 75,133 73,138 M 73,138 C 72,143 73,142 74,134 M 74,134 C 75,131 83,122 87,120 M 87,120 C 93,119 100,119 107,121 M 107,121 C 110,123 119,129 125,130 M 125,130 C 128,134 132,139 133,144 M 133,144 C 127,145 120,143 99,144 M 99,144 C 103,143 126,144 133,144 M 133,144 C 141,148 143,152 143,156 M 143,156 C 141,157 139,154 140,156 M 140,156 C 141,158 137,160 135,163 M 135,163 C 134,165 137,168 141,169 M 141,169 C 142,167 142,162 141,158 M 141,158 C 143,159 143,154 143,150 M 143,150 C 141,147 137,144 133,142 M 133,142 C 132,138 128,133 131,131 M 131,131 C 134,132 140,134 143,135 M 143,135 C 145,136 148,138 151,139 M 151,139 C 153,140 156,142 159,143 M 159,143 C 161,144 164,146 167,147 M 167,147 C 170,148 173,150 176,151 M 176,151 C 178,152 181,154 187,152 M 187,152 C 193,149 200,147 209,140 M 209,140 C 213,137 218,133 221,129 M 221,129 C 219,128 221,126 224,127 M 224,127 C 227,128 232,131 234,133 M 234,133 C 232,134 230,137 228,141 M 228,141 C 227,144 225,147 224,150 M 224,150 C 223,152 221,155 220,160 M 220,160 C 217,162 216,165 214,168 M 214,168 C 212,171 211,174 205,181 M 205,181 C 203,182 199,183 193,186 M 193,186 C 190,188 183,195 179,200 M 179,200 C 177,201 165,201 164,200 M 164,200 C 166,200 178,200 181,198 M 181,198 C 183,195 193,186 199,184 M 199,184 C 203,182 210,177 211,174 M 211,174 C 212,172 215,168 216,165 M 216,165 C 218,165 219,171 226,171 M 226,171 C 228,170 233,167 238,162 M 238,162 C 240,159 242,154 241,145 M 241,145 C 240,142 237,138 236,135 M 236,135 C 234,134 231,130 228,129 M 228,129 C 225,128 221,125 220,123 M 220,123 C 219,121 212,122 207,126 M 207,126 C 204,128 190,127 187,125 M 187,125 C 197,116 201,114 213,110 M 213,110 C 215,107 217,103 218,100 M 218,100 C 219,97 221,94 222,90 M 222,90 C 223,87 226,83 227,80 M 227,80 C 228,78 238,67 242,62 M 242,62 C 240,61 236,59 233,56 M 233,56 C 231,55 227,53 221,48 M 221,48 C 217,45 212,42 207,38 M 207,38 C 205,37 201,36 198,34 M 198,34 C 195,33 184,32 174,27 M 174,27 C 169,21 165,19 161,17 M 161,17 C 158,16 142,14 138,11 M 138,159 C 143,163 138,169 135,167 M 233,134 C 236,136 237,139 240,143 M 240,143 C 241,145 242,154 238,161 M 238,161 C 237,163 231,167 226,171 M 226,171 C 224,172 219,169 217,164 M 217,164 C 219,161 221,165 225,168 M 225,168 C 227,167 230,158 225,160 M 225,160 C 224,165 230,158 225,168 M 225,168 C 221,165 220,162 220,158 M 220,158 C 221,155 225,149 226,145 M 226,145 C 227,143 230,139 231,136 M 227,149 C 228,153 225,156 227,155 M 234,138 C 236,141 237,145 239,150 M 239,150 C 238,154 235,160 238,156 M 238,156 C 239,153 238,146 236,142 "/></svg>