<svg viewBox="0 0 256 256" xmlns="http://www.w3.org/2000/svg"><path fill="none" stroke="#48514f" d="M 255,238 L 254,238 L 251,240 L 249,240 L 248,241 L 247,241 L 248,242 L 255,242 "/>
<path fill="none" stroke="#666e69" d="M 228,235 L 228,236 L 232,240 L 236,240 L 236,239 L 235,239 L 234,238 L 234,235 L 233,234 L 230,234 L 229,235 "/>
<path fill="none" stroke="#1d2124" d="M 228,226 L 226,228 L 226,229 L 227,230 L 229,230 L 230,229 "/>
<path fill="none" stroke="#cdd1d2" d="M 255,217 L 243,229 L 242,229 L 240,231 L 239,231 L 236,233 L 236,234 L 239,239 L 244,239 L 248,236 L 249,236 L 254,231 L 255,231 "/>
<path fill="none" stroke="#656d68" d="M 217,217 L 217,219 L 220,224 L 223,224 L 226,222 L 226,221 L 223,219 L 222,216 L 219,216 L 218,217 "/>
<path fill="none" stroke="#77827c" d="M 52,213 L 52,215 L 51,216 L 52,217 L 53,217 L 54,218 L 55,217 L 57,217 L 57,215 L 55,213 "/>
<path fill="none" stroke="#5a6467" d="M 177,212 L 176,212 L 176,213 L 175,214 L 175,216 L 174,217 L 174,219 L 173,220 L 173,221 L 169,225 L 168,225 L 164,228 L 163,228 L 165,228 L 166,227 L 170,227 L 171,226 L 172,226 L 176,222 L 176,221 L 178,218 L 178,214 L 177,213 "/>
<path fill="none" stroke="#778279" d="M 133,214 L 130,212 L 125,212 L 124,213 L 119,213 L 118,214 L 115,214 L 114,215 L 109,215 L 108,216 L 105,216 L 104,217 L 101,217 L 100,218 L 98,218 L 97,219 L 95,219 L 94,220 L 89,221 L 86,223 L 86,226 L 85,227 L 85,231 L 86,232 L 86,237 L 88,237 L 89,236 L 91,236 L 92,235 L 95,235 L 96,234 L 98,234 L 99,233 L 101,233 L 102,232 L 105,232 L 106,231 L 115,231 L 115,227 L 117,225 L 120,225 L 121,224 L 127,224 L 128,223 L 131,223 L 134,219 "/>
<path fill="none" stroke="#535959" d="M 42,212 L 43,213 L 43,212 "/>
<path fill="none" stroke="#202427" d="M 212,207 L 212,208 L 216,212 L 217,212 L 217,211 L 214,208 L 214,207 "/>
<path fill="none" stroke="#444c4a" d="M 246,206 L 246,207 L 245,208 L 245,210 L 242,214 L 242,215 L 240,217 L 240,218 L 236,222 L 234,222 L 232,224 L 233,225 L 233,226 L 236,229 L 236,228 L 250,214 L 252,214 L 252,212 L 251,211 L 250,211 L 249,210 L 249,209 "/>
<path fill="none" stroke="#65706a" d="M 202,199 L 207,204 L 208,204 L 210,202 L 207,201 L 204,198 L 203,198 "/>
<path fill="none" stroke="#9ba69f" d="M 143,212 L 142,211 L 142,208 L 140,205 L 140,202 L 137,198 L 136,199 L 136,202 L 135,203 L 134,202 L 133,202 L 132,201 L 132,200 L 130,200 L 130,201 L 126,204 L 122,204 L 121,203 L 119,203 L 118,202 L 115,201 L 111,198 L 108,198 L 107,199 L 106,202 L 104,204 L 104,205 L 100,208 L 98,208 L 97,209 L 95,209 L 94,210 L 92,210 L 91,211 L 75,211 L 74,212 L 73,212 L 70,215 L 67,216 L 65,218 L 63,218 L 62,219 L 61,219 L 57,222 L 50,222 L 47,219 L 46,220 L 42,220 L 39,217 L 39,216 L 40,215 L 39,214 L 27,214 L 26,213 L 24,213 L 24,214 L 23,215 L 23,221 L 22,222 L 22,225 L 24,227 L 26,227 L 27,228 L 29,228 L 30,229 L 32,229 L 33,230 L 35,230 L 36,231 L 38,231 L 39,232 L 43,232 L 44,233 L 50,233 L 51,234 L 56,234 L 57,235 L 63,235 L 64,236 L 68,236 L 69,237 L 72,237 L 73,238 L 77,238 L 78,239 L 82,239 L 82,236 L 81,235 L 81,226 L 82,225 L 82,223 L 81,222 L 74,222 L 73,221 L 69,221 L 68,220 L 68,218 L 69,217 L 73,217 L 74,218 L 79,218 L 80,219 L 85,219 L 88,217 L 93,216 L 96,214 L 99,214 L 100,213 L 103,213 L 104,212 L 108,212 L 109,211 L 112,211 L 113,210 L 117,210 L 118,209 L 123,209 L 124,208 L 131,208 L 132,209 L 133,209 L 136,212 L 137,217 L 138,217 L 140,215 L 141,215 L 143,213 "/>
<path fill="none" stroke="#67736b" d="M 105,208 L 105,207 L 106,206 L 109,206 L 110,207 L 108,209 L 106,209 "/>
<path fill="none" stroke="#667369" d="M 184,196 L 187,196 "/>
<path fill="none" stroke="#d0d4d6" d="M 234,193 L 232,196 L 232,198 L 231,199 L 229,204 L 224,210 L 224,214 L 228,218 L 228,220 L 231,220 L 238,213 L 238,212 L 242,205 L 242,200 L 240,198 L 239,198 "/>
<path fill="none" stroke="#58645b" d="M 139,193 L 139,195 L 140,196 L 140,197 L 141,197 L 141,195 L 140,194 L 140,193 "/>
<path fill="none" stroke="#414846" d="M 223,188 L 222,189 L 223,190 L 223,191 L 222,192 L 222,195 L 221,196 L 220,199 L 217,202 L 216,202 L 216,203 L 220,208 L 221,208 L 222,207 L 223,202 L 228,193 L 228,192 L 225,189 L 224,189 "/>
<path fill="none" stroke="#3f4744" d="M 202,188 L 202,190 L 198,196 L 200,196 L 200,195 L 202,192 "/>
<path fill="none" stroke="#444c48" d="M 203,182 L 203,185 "/>
<path fill="none" stroke="#ced1d3" d="M 209,181 L 208,182 L 208,188 L 207,189 L 207,191 L 205,194 L 205,196 L 208,197 L 211,200 L 213,200 L 217,193 L 217,189 L 218,188 L 218,186 L 216,183 L 214,183 L 213,182 L 210,182 "/>
<path fill="none" stroke="#4b5456" d="M 75,178 L 73,178 L 72,179 L 67,179 L 66,178 L 59,178 L 58,177 L 56,177 L 55,178 L 55,179 L 56,180 L 56,184 L 55,185 L 55,189 L 54,190 L 54,192 L 53,193 L 53,194 L 49,198 L 48,198 L 47,199 L 45,199 L 44,200 L 42,200 L 41,199 L 36,199 L 35,198 L 31,198 L 30,199 L 27,200 L 25,202 L 24,202 L 24,207 L 25,208 L 25,207 L 26,206 L 28,206 L 29,207 L 29,208 L 28,209 L 27,209 L 28,209 L 29,210 L 31,210 L 31,209 L 32,208 L 32,207 L 31,206 L 31,204 L 33,202 L 36,206 L 36,207 L 35,208 L 35,210 L 40,210 L 40,208 L 44,204 L 45,204 L 48,202 L 53,201 L 54,200 L 58,200 L 59,199 L 59,197 L 62,194 L 63,194 L 66,191 L 67,191 L 68,190 L 68,183 L 70,181 L 72,183 L 72,188 L 71,189 L 71,191 L 65,196 L 64,196 L 63,197 L 63,198 L 66,196 L 71,195 L 72,194 L 77,192 L 78,191 L 78,186 L 76,183 L 76,180 L 75,179 "/>
<path fill="none" stroke="#3a4148" d="M 18,153 L 18,163 L 20,165 L 20,168 L 21,167 L 21,162 L 22,161 L 22,158 L 21,158 L 19,156 "/>
<path fill="none" stroke="#727473" d="M 22,149 L 21,150 L 21,151 L 22,152 L 22,154 L 23,155 L 25,155 L 25,154 L 26,153 L 25,152 L 24,152 L 22,150 "/>
<path fill="none" stroke="#3a4348" d="M 33,143 L 32,143 L 27,146 L 21,146 L 20,147 L 25,147 L 28,150 L 28,151 L 32,146 "/>
<path fill="none" stroke="#767b80" d="M 49,142 L 47,142 L 46,143 L 46,148 L 48,148 L 49,147 L 49,146 L 50,145 L 50,143 "/>
<path fill="none" stroke="#bdbfba" d="M 23,142 L 27,142 L 28,141 L 27,140 L 24,140 L 23,141 "/>
<path fill="none" stroke="#7b8483" d="M 74,140 L 63,140 L 62,139 L 61,139 L 60,138 L 58,138 L 51,134 L 49,134 L 48,133 L 47,133 L 47,135 L 46,136 L 46,137 L 43,140 L 41,140 L 40,141 L 37,141 L 37,148 L 36,149 L 35,148 L 34,149 L 34,150 L 33,151 L 33,153 L 27,159 L 27,160 L 26,161 L 26,163 L 25,164 L 25,167 L 24,168 L 24,173 L 25,174 L 25,175 L 29,178 L 31,178 L 33,176 L 33,173 L 32,172 L 31,172 L 28,168 L 29,167 L 29,164 L 31,162 L 33,162 L 34,163 L 38,163 L 40,165 L 40,170 L 36,176 L 37,177 L 40,177 L 41,176 L 44,176 L 50,170 L 50,169 L 51,168 L 51,163 L 55,159 L 56,159 L 57,156 L 56,156 L 55,155 L 53,155 L 52,156 L 42,156 L 36,151 L 36,149 L 37,148 L 40,148 L 43,151 L 45,151 L 44,151 L 42,149 L 42,148 L 41,147 L 41,144 L 42,143 L 42,142 L 44,140 L 45,140 L 47,137 L 48,137 L 49,136 L 52,137 L 54,139 L 54,141 L 55,142 L 55,144 L 54,145 L 53,148 L 49,152 L 48,152 L 49,152 L 50,151 L 56,151 L 57,152 L 58,152 L 61,156 L 61,158 L 59,161 L 61,161 L 62,160 L 67,160 L 67,158 L 63,155 L 63,153 L 64,152 L 66,152 L 67,153 L 69,153 L 70,152 L 73,152 L 73,149 L 71,146 L 72,145 L 72,143 L 74,141 "/>
<path fill="none" stroke="#b4b6b7" d="M 43,132 L 40,133 L 38,135 L 38,137 L 41,136 L 43,134 "/>
<path fill="none" stroke="#343b41" d="M 141,128 L 136,129 L 136,131 L 135,132 L 135,133 L 125,143 L 125,144 L 128,148 L 129,148 L 136,141 L 136,140 L 140,135 L 140,134 L 142,131 "/>
<path fill="none" stroke="#293139" d="M 123,118 L 123,119 L 124,119 "/>
<path fill="none" stroke="#727b74" d="M 101,117 L 101,118 "/>
<path fill="none" stroke="#a8b0ab" d="M 89,123 L 89,122 L 87,119 L 87,117 L 85,117 L 84,118 L 77,118 L 76,119 L 82,121 L 85,124 L 87,124 L 88,123 "/>
<path fill="none" stroke="#363c43" d="M 121,107 L 115,109 L 112,114 L 112,116 L 111,117 L 111,127 L 110,128 L 110,132 L 109,133 L 109,136 L 110,136 L 110,135 L 113,131 L 113,130 L 114,129 L 117,122 L 119,120 L 119,117 L 120,116 L 120,112 L 121,111 "/>
<path fill="none" stroke="#f9f9f9" d="M 147,99 L 143,99 L 142,100 L 137,100 L 136,101 L 134,101 L 127,105 L 127,115 L 128,116 L 128,120 L 129,121 L 129,123 L 131,125 L 132,125 L 133,124 L 137,124 L 138,123 L 141,123 L 142,122 L 142,121 L 143,120 L 143,118 L 148,109 L 148,101 L 147,100 "/>
<path fill="none" stroke="#dcdcdd" d="M 97,98 L 97,100 L 98,101 L 99,106 L 100,107 L 100,108 L 101,108 L 101,107 L 103,105 L 103,99 L 100,99 L 99,98 "/>
<path fill="none" stroke="#a23736" d="M 151,97 L 150,98 L 152,100 L 152,103 L 153,104 L 153,108 L 155,108 L 156,107 L 157,107 L 157,104 L 156,103 L 156,101 L 153,97 "/>
<path fill="none" stroke="#363d44" d="M 94,96 L 93,96 L 92,97 L 92,98 L 90,101 L 90,114 L 91,115 L 91,117 L 93,120 L 93,123 L 90,126 L 93,130 L 95,127 L 95,121 L 96,120 L 96,109 L 95,108 L 95,107 L 94,106 L 94,104 L 93,103 L 93,98 L 94,97 "/>
<path fill="none" stroke="#aa3838" d="M 161,88 L 157,92 L 157,94 L 158,94 L 165,102 L 167,100 L 166,99 L 167,98 L 167,97 L 170,95 L 172,95 L 174,93 L 173,92 L 171,92 L 168,90 L 166,90 L 165,89 L 163,89 L 162,88 "/>
<path fill="none" stroke="#b33a3b" d="M 163,71 L 163,78 L 164,78 L 165,79 L 167,79 L 174,83 L 176,83 L 177,84 L 178,83 L 178,81 L 179,80 L 181,75 L 180,75 L 177,73 L 175,73 L 174,72 L 170,72 L 169,71 "/>
<path fill="none" stroke="#363c43" d="M 134,68 L 134,72 L 133,73 L 133,75 L 130,79 L 130,86 L 129,87 L 132,87 L 133,88 L 133,90 L 132,91 L 131,91 L 126,96 L 126,97 L 123,100 L 123,101 L 122,102 L 124,102 L 127,99 L 128,99 L 133,96 L 135,96 L 136,95 L 140,95 L 140,93 L 141,92 L 141,91 L 140,90 L 140,87 L 139,86 L 139,83 L 138,82 L 138,80 L 137,79 L 137,76 L 136,75 L 136,73 L 135,72 L 135,70 L 134,69 "/>
<path fill="none" stroke="#363c44" d="M 107,67 L 104,68 L 104,69 L 101,72 L 101,73 L 97,80 L 97,85 L 98,86 L 98,88 L 99,89 L 99,94 L 102,94 L 104,91 L 104,84 L 103,83 L 103,77 L 104,76 L 104,73 L 105,72 L 105,71 L 106,70 L 106,68 "/>
<path fill="none" stroke="#00030d" d="M 168,65 L 169,66 L 173,66 L 172,65 "/>
<path fill="none" stroke="#b93b3c" d="M 173,45 L 172,46 L 171,49 L 169,51 L 168,54 L 166,56 L 166,58 L 167,58 L 168,59 L 172,59 L 175,61 L 180,62 L 183,65 L 185,65 L 185,61 L 186,60 L 186,55 L 187,54 L 187,50 L 186,49 L 183,49 L 182,48 L 180,48 L 176,45 "/>
<path fill="none" stroke="#c13c3d" d="M 126,45 L 124,45 L 121,47 L 119,47 L 119,50 L 121,52 L 124,51 L 127,47 L 126,46 "/>
<path fill="none" stroke="#353b40" d="M 149,39 L 149,40 L 150,41 L 150,39 "/>
<path fill="none" stroke="#f3f3f3" d="M 128,40 L 129,43 L 131,45 L 133,45 L 134,46 L 137,45 L 137,41 L 135,39 L 134,39 L 131,37 "/>
<path fill="none" stroke="#f0f1f1" d="M 123,36 L 122,36 L 121,35 L 120,35 L 119,36 L 115,36 L 114,37 L 114,41 L 116,43 L 121,43 L 123,41 "/>
<path fill="none" stroke="#bb3d3c" d="M 182,36 L 185,39 L 187,39 L 188,40 L 189,39 L 189,37 L 187,34 L 186,35 L 183,35 "/>
<path fill="none" stroke="#363c42" d="M 97,32 L 97,34 L 98,34 L 99,33 L 101,33 L 101,32 "/>
<path fill="none" stroke="#f7f7f8" d="M 136,31 L 134,33 L 134,35 L 135,35 L 138,37 L 138,32 L 137,31 "/>
<path fill="none" stroke="#373f46" d="M 145,27 L 147,30 L 147,32 L 148,33 L 148,34 L 149,34 L 149,32 L 148,31 L 147,28 L 146,27 "/>
<path fill="none" stroke="#363c44" d="M 129,20 L 129,21 L 130,22 L 131,21 L 130,21 "/>
<path fill="none" stroke="#373d44" d="M 143,15 L 138,20 L 141,22 L 141,19 L 142,18 L 142,16 "/>
<path fill="none" stroke="#c8c9c9" d="M 151,14 L 149,14 L 149,15 L 145,20 L 145,22 L 146,23 L 147,23 L 149,21 L 149,20 L 151,17 "/>
<path fill="none" stroke="#373e44" d="M 115,11 L 115,12 L 116,13 L 116,16 L 112,20 L 110,20 L 109,21 L 108,21 L 108,22 L 104,26 L 104,27 L 107,28 L 107,26 L 108,25 L 108,24 L 113,19 L 119,17 L 118,16 L 117,13 "/>
<path fill="none" stroke="#b7b9ba" d="M 110,11 L 108,11 L 107,12 L 107,16 L 108,17 L 109,17 L 112,14 L 112,13 "/>
<path fill="none" stroke="#383e45" d="M 107,5 L 107,7 L 110,7 L 108,5 "/>
<path fill="none" stroke="#e1e4e2" d="M 8,121 L 8,125 L 9,126 L 9,130 L 10,131 L 12,136 L 15,139 L 15,142 L 13,145 L 13,147 L 12,148 L 12,150 L 11,151 L 11,154 L 10,155 L 10,157 L 9,158 L 9,160 L 12,164 L 13,163 L 13,160 L 14,159 L 14,156 L 13,155 L 13,153 L 14,152 L 14,151 L 15,150 L 15,148 L 16,147 L 18,142 L 20,140 L 20,139 L 24,136 L 28,136 L 31,139 L 33,139 L 35,133 L 38,130 L 39,130 L 40,129 L 42,129 L 43,128 L 47,128 L 48,129 L 51,129 L 54,131 L 56,131 L 63,135 L 76,135 L 77,136 L 79,136 L 80,137 L 79,142 L 76,145 L 76,147 L 79,150 L 79,151 L 80,152 L 80,155 L 77,157 L 73,157 L 72,156 L 70,156 L 69,157 L 70,158 L 71,158 L 74,162 L 72,164 L 69,164 L 68,165 L 60,165 L 59,166 L 57,166 L 54,169 L 54,172 L 52,174 L 55,174 L 56,173 L 59,173 L 60,174 L 65,174 L 66,175 L 72,175 L 74,173 L 74,172 L 71,172 L 70,171 L 69,171 L 67,169 L 67,168 L 68,167 L 72,167 L 75,170 L 76,170 L 77,171 L 78,171 L 79,170 L 82,173 L 82,174 L 81,175 L 80,175 L 79,176 L 79,177 L 80,178 L 81,183 L 83,185 L 83,192 L 81,195 L 80,195 L 73,199 L 71,199 L 66,202 L 61,203 L 58,205 L 52,205 L 51,206 L 49,206 L 48,207 L 45,208 L 45,211 L 47,213 L 47,214 L 48,214 L 48,210 L 49,209 L 50,210 L 52,210 L 53,209 L 55,209 L 56,210 L 57,210 L 60,213 L 60,215 L 61,216 L 64,213 L 67,212 L 71,208 L 72,208 L 75,206 L 77,206 L 78,207 L 86,207 L 87,206 L 93,206 L 94,205 L 95,205 L 98,202 L 98,200 L 101,197 L 101,196 L 102,195 L 103,195 L 104,196 L 101,200 L 101,201 L 100,202 L 101,202 L 103,197 L 106,194 L 106,186 L 104,184 L 103,184 L 102,183 L 100,183 L 99,182 L 100,181 L 102,181 L 103,180 L 103,177 L 104,176 L 105,176 L 109,180 L 109,181 L 110,182 L 110,184 L 111,185 L 111,194 L 114,195 L 116,197 L 117,197 L 122,200 L 125,200 L 126,199 L 127,199 L 128,198 L 128,195 L 129,194 L 129,189 L 131,186 L 131,183 L 132,182 L 132,181 L 133,180 L 133,178 L 134,177 L 134,173 L 135,172 L 135,171 L 138,168 L 141,171 L 141,173 L 140,174 L 140,175 L 142,177 L 142,180 L 141,181 L 141,183 L 142,184 L 140,186 L 138,184 L 137,184 L 137,185 L 135,188 L 135,193 L 136,193 L 136,188 L 137,187 L 138,187 L 140,189 L 141,189 L 144,192 L 144,193 L 145,194 L 145,205 L 147,208 L 147,213 L 148,212 L 148,207 L 145,202 L 146,201 L 148,201 L 152,205 L 152,206 L 151,207 L 151,214 L 149,216 L 148,216 L 147,215 L 144,218 L 141,219 L 138,222 L 137,222 L 132,227 L 130,227 L 129,228 L 126,228 L 126,231 L 123,233 L 121,231 L 122,228 L 120,228 L 119,229 L 119,234 L 120,235 L 127,235 L 128,234 L 130,234 L 131,235 L 140,235 L 141,234 L 147,234 L 148,233 L 150,233 L 151,232 L 156,231 L 159,229 L 161,229 L 157,229 L 156,230 L 148,230 L 144,226 L 144,218 L 145,217 L 148,220 L 148,223 L 149,224 L 149,225 L 160,225 L 161,224 L 162,224 L 167,219 L 168,219 L 168,218 L 170,215 L 170,213 L 171,212 L 172,209 L 175,206 L 175,205 L 177,203 L 179,203 L 179,199 L 180,198 L 180,196 L 181,195 L 181,194 L 184,191 L 186,191 L 190,195 L 191,195 L 192,196 L 193,196 L 195,194 L 195,193 L 197,191 L 197,189 L 198,188 L 198,183 L 199,182 L 199,181 L 197,179 L 194,178 L 187,170 L 189,168 L 190,168 L 190,165 L 189,164 L 186,157 L 183,154 L 183,153 L 177,147 L 176,147 L 171,143 L 170,143 L 163,139 L 161,139 L 157,136 L 156,136 L 152,133 L 151,133 L 146,127 L 146,126 L 147,125 L 155,131 L 156,131 L 157,132 L 158,132 L 159,133 L 160,133 L 161,134 L 162,134 L 163,135 L 164,135 L 165,136 L 166,136 L 167,137 L 174,140 L 176,142 L 177,142 L 179,144 L 180,144 L 186,150 L 186,151 L 190,156 L 191,159 L 193,161 L 193,163 L 194,164 L 194,172 L 197,175 L 199,175 L 200,176 L 202,176 L 203,177 L 208,177 L 209,178 L 213,178 L 214,179 L 219,180 L 221,182 L 228,185 L 236,191 L 239,192 L 252,205 L 252,206 L 254,208 L 254,209 L 255,209 L 255,0 L 108,0 L 109,1 L 114,3 L 120,9 L 121,12 L 123,14 L 125,14 L 126,15 L 131,15 L 134,17 L 135,17 L 136,16 L 136,15 L 141,10 L 142,10 L 144,8 L 145,8 L 146,7 L 148,7 L 149,6 L 153,6 L 156,9 L 156,16 L 152,23 L 152,28 L 153,29 L 153,31 L 154,32 L 155,37 L 156,38 L 156,39 L 159,42 L 159,43 L 158,44 L 156,44 L 155,43 L 154,43 L 154,46 L 153,47 L 151,47 L 151,49 L 152,50 L 150,52 L 149,52 L 147,50 L 145,50 L 144,49 L 143,46 L 144,45 L 147,45 L 147,44 L 144,41 L 144,34 L 143,33 L 143,31 L 141,29 L 141,28 L 138,25 L 133,25 L 129,30 L 127,30 L 126,29 L 126,24 L 123,22 L 118,22 L 117,23 L 115,23 L 112,26 L 112,28 L 111,29 L 111,30 L 113,32 L 117,32 L 118,31 L 120,31 L 121,32 L 123,32 L 124,33 L 131,33 L 131,31 L 134,28 L 138,28 L 140,30 L 140,31 L 141,32 L 141,34 L 142,35 L 142,38 L 141,39 L 141,46 L 139,49 L 136,50 L 135,49 L 133,49 L 132,48 L 131,48 L 129,53 L 126,56 L 119,56 L 115,53 L 115,51 L 114,50 L 115,49 L 115,47 L 114,46 L 114,45 L 113,45 L 109,41 L 109,39 L 111,36 L 111,35 L 110,34 L 108,34 L 102,38 L 97,38 L 97,40 L 101,40 L 102,41 L 102,46 L 104,46 L 105,47 L 106,47 L 107,48 L 109,48 L 110,49 L 110,50 L 111,51 L 111,54 L 112,55 L 112,70 L 110,72 L 110,73 L 108,76 L 108,80 L 109,81 L 109,84 L 110,85 L 110,90 L 109,91 L 109,93 L 107,96 L 107,98 L 108,99 L 108,104 L 106,106 L 106,107 L 102,111 L 102,112 L 101,113 L 101,114 L 104,115 L 106,117 L 107,116 L 107,112 L 108,111 L 109,108 L 113,104 L 118,104 L 119,103 L 117,101 L 117,100 L 119,98 L 119,97 L 125,91 L 125,89 L 124,88 L 124,87 L 125,86 L 125,84 L 126,83 L 126,82 L 122,82 L 120,80 L 120,78 L 121,77 L 124,79 L 127,76 L 127,75 L 128,74 L 128,72 L 130,69 L 127,66 L 131,62 L 131,56 L 135,52 L 136,52 L 137,51 L 139,51 L 140,52 L 144,49 L 145,50 L 145,54 L 143,56 L 140,56 L 139,55 L 137,55 L 135,58 L 135,61 L 138,65 L 138,66 L 141,71 L 141,74 L 142,75 L 142,78 L 143,79 L 143,81 L 144,82 L 144,84 L 145,85 L 145,87 L 146,88 L 146,91 L 145,92 L 145,94 L 146,95 L 147,94 L 150,94 L 154,90 L 155,90 L 155,89 L 157,87 L 157,85 L 158,84 L 158,77 L 159,76 L 159,70 L 160,69 L 160,64 L 161,63 L 161,59 L 162,58 L 162,55 L 163,54 L 164,51 L 166,49 L 167,46 L 170,43 L 170,42 L 179,33 L 180,33 L 182,31 L 184,31 L 185,30 L 191,30 L 192,31 L 192,33 L 193,34 L 193,41 L 192,42 L 192,51 L 191,52 L 191,58 L 190,59 L 190,63 L 189,64 L 189,66 L 188,67 L 188,69 L 187,70 L 187,72 L 186,73 L 186,76 L 185,77 L 185,79 L 184,80 L 183,85 L 182,86 L 179,93 L 174,99 L 174,100 L 166,107 L 163,108 L 160,111 L 158,111 L 157,112 L 154,112 L 153,113 L 150,113 L 150,114 L 148,117 L 148,119 L 146,121 L 146,122 L 144,125 L 146,128 L 146,130 L 147,131 L 147,132 L 144,136 L 143,139 L 140,142 L 140,143 L 137,146 L 137,147 L 133,151 L 132,151 L 130,153 L 128,153 L 127,154 L 123,154 L 120,152 L 118,152 L 117,151 L 117,149 L 118,148 L 118,146 L 119,145 L 119,143 L 120,142 L 120,141 L 126,135 L 127,135 L 131,131 L 131,130 L 132,129 L 131,128 L 128,128 L 127,127 L 126,127 L 125,126 L 125,125 L 122,123 L 120,125 L 120,128 L 119,129 L 119,130 L 116,133 L 116,136 L 115,137 L 115,141 L 113,143 L 110,144 L 108,142 L 108,141 L 106,141 L 105,142 L 103,140 L 103,138 L 105,135 L 105,131 L 106,130 L 106,120 L 105,120 L 104,121 L 103,120 L 100,120 L 100,121 L 99,122 L 101,125 L 101,130 L 99,132 L 97,132 L 96,133 L 96,134 L 92,137 L 90,135 L 90,134 L 87,134 L 86,133 L 86,129 L 84,127 L 83,127 L 81,125 L 80,125 L 77,123 L 74,123 L 71,120 L 71,119 L 69,116 L 69,114 L 67,111 L 67,105 L 65,103 L 65,102 L 60,98 L 58,98 L 54,102 L 54,103 L 52,105 L 52,106 L 49,111 L 49,116 L 47,118 L 44,117 L 43,118 L 38,120 L 36,122 L 35,122 L 31,125 L 28,125 L 27,124 L 25,124 L 24,123 L 21,123 L 20,122 L 17,122 L 16,121 L 14,121 L 13,120 L 9,120 "/>
<path fill="none" stroke="#6d7b72" d="M 113,193 L 116,191 L 118,191 L 123,195 L 126,195 L 127,196 L 124,198 L 122,198 L 119,196 L 117,196 L 116,195 L 115,195 "/>
<path fill="none" stroke="#748178" d="M 105,186 L 106,187 L 106,190 L 104,192 L 103,191 L 103,187 L 104,186 "/>
<path fill="none" stroke="#696f6c" d="M 12,122 L 13,123 L 18,125 L 20,127 L 20,129 L 19,130 L 18,130 L 17,129 L 16,130 L 16,132 L 17,133 L 17,134 L 16,135 L 14,135 L 11,132 L 11,128 L 12,127 L 11,126 L 11,123 "/>
<path fill="none" stroke="#585e5c" d="M 59,99 L 60,99 L 62,101 L 62,102 L 65,107 L 65,109 L 66,110 L 66,115 L 63,118 L 55,118 L 53,116 L 54,115 L 54,112 L 55,111 L 55,107 L 56,106 L 57,101 "/>
<path fill="none" stroke="#53605b" d="M 60,106 L 59,107 L 59,111 L 58,112 L 58,113 L 59,113 L 60,114 L 62,112 L 61,111 L 61,108 L 60,107 "/>
<path fill="none" stroke="#d1d0cf" d="M 103,40 L 104,39 L 105,39 L 107,41 L 107,42 L 106,43 L 105,43 L 103,41 "/>
<path fill="none" stroke="#9d9e9f" d="M 116,27 L 118,25 L 120,27 L 121,27 L 122,28 L 123,27 L 124,27 L 126,29 L 124,31 L 119,31 L 116,29 "/>
<path fill="none" stroke="#fdfdfd" d="M 0,0 L 0,255 L 255,255 L 255,247 L 253,247 L 252,248 L 250,248 L 249,249 L 240,249 L 239,248 L 236,248 L 232,245 L 231,245 L 224,238 L 223,235 L 221,233 L 221,232 L 219,230 L 219,229 L 216,226 L 214,221 L 212,219 L 210,214 L 207,211 L 207,210 L 201,204 L 201,203 L 199,201 L 196,201 L 195,200 L 194,200 L 193,201 L 184,201 L 183,202 L 183,205 L 180,207 L 180,208 L 182,211 L 182,214 L 183,215 L 183,218 L 182,219 L 182,221 L 180,223 L 179,226 L 177,228 L 176,228 L 173,231 L 171,231 L 170,232 L 165,232 L 164,233 L 162,233 L 159,235 L 157,235 L 156,236 L 154,236 L 153,237 L 150,237 L 149,238 L 147,238 L 146,239 L 139,239 L 138,240 L 119,240 L 114,234 L 113,235 L 108,235 L 107,236 L 104,236 L 103,237 L 101,237 L 100,238 L 97,238 L 96,239 L 94,239 L 93,240 L 90,240 L 89,241 L 87,241 L 84,243 L 77,243 L 76,242 L 71,242 L 70,241 L 67,241 L 66,240 L 61,240 L 60,239 L 55,239 L 54,238 L 48,238 L 47,237 L 42,237 L 41,236 L 38,236 L 37,235 L 35,235 L 34,234 L 32,234 L 31,233 L 29,233 L 28,232 L 26,232 L 25,231 L 23,231 L 22,230 L 21,230 L 18,227 L 18,219 L 19,218 L 19,214 L 20,213 L 20,210 L 17,207 L 17,206 L 16,205 L 17,204 L 17,203 L 19,201 L 19,200 L 23,196 L 24,196 L 28,193 L 36,193 L 37,194 L 40,194 L 41,195 L 44,195 L 45,194 L 46,194 L 49,191 L 49,190 L 50,189 L 50,186 L 51,185 L 51,181 L 52,180 L 50,178 L 45,181 L 42,181 L 41,182 L 36,182 L 35,181 L 31,181 L 30,182 L 27,182 L 22,177 L 19,176 L 17,174 L 17,173 L 16,172 L 16,169 L 13,171 L 12,171 L 10,169 L 10,167 L 9,166 L 9,165 L 5,161 L 5,157 L 7,154 L 7,152 L 8,151 L 8,148 L 9,147 L 9,145 L 10,144 L 11,141 L 5,130 L 5,125 L 4,124 L 4,119 L 7,116 L 13,116 L 14,117 L 17,117 L 18,118 L 20,118 L 21,119 L 25,119 L 26,120 L 29,120 L 30,121 L 34,118 L 35,118 L 37,116 L 44,113 L 45,112 L 45,110 L 47,107 L 47,105 L 50,102 L 50,101 L 57,94 L 58,94 L 59,93 L 60,93 L 63,96 L 64,96 L 69,101 L 69,102 L 71,104 L 71,110 L 72,111 L 72,113 L 74,116 L 75,115 L 78,115 L 79,114 L 85,114 L 86,113 L 86,112 L 85,111 L 85,108 L 84,107 L 84,102 L 85,101 L 85,98 L 87,96 L 87,95 L 90,93 L 90,92 L 91,91 L 94,91 L 95,90 L 91,85 L 91,80 L 92,79 L 94,74 L 96,72 L 97,69 L 99,67 L 99,66 L 108,58 L 107,53 L 106,52 L 103,51 L 102,50 L 102,49 L 101,48 L 100,48 L 96,44 L 95,41 L 93,41 L 93,42 L 92,43 L 90,43 L 89,42 L 89,41 L 93,38 L 93,35 L 90,36 L 89,35 L 89,33 L 94,28 L 95,28 L 101,22 L 102,22 L 103,21 L 103,16 L 102,15 L 102,2 L 103,1 L 103,0 "/>
</svg>