<?xml version="1.0" encoding="utf-8" ?>
<svg baseProfile="tiny" height="100%" version="1.2" width="100%" xmlns="http://www.w3.org/2000/svg" xmlns:ev="http://www.w3.org/2001/xml-events" xmlns:xlink="http://www.w3.org/1999/xlink"><defs /><polygon fill="rgb(185,182,182)" points="99,0 90,6 67,0 63,2 76,32 50,26 49,23 47,24 47,27 50,29 77,35 82,42 45,38 43,41 85,45 94,51 92,58 35,83 23,78 8,80 0,89" stroke="black" /><polygon fill="rgb(120,120,120)" points="145,0 143,0" stroke="black" /><polygon fill="rgb(110,109,107)" points="147,2 157,0 255,44 246,44 232,53 218,70 212,84 209,100 210,114 227,144 231,168 227,179 207,194 197,193 192,190 173,166 163,56 173,42 188,30 203,28 215,32 223,32 230,29 235,23 235,13 231,7 221,3 202,3 184,7 182,3 146,5" stroke="black" /><polygon fill="rgb(254,254,254)" points="149,26 148,8 183,6" stroke="black" /><polygon fill="rgb(190,190,189)" points="226,21 218,24 212,20 211,16 214,12 219,12 225,16" stroke="black" /><polygon fill="rgb(254,254,254)" points="112,34 131,21 128,30 123,35" stroke="black" /><polygon fill="rgb(0,0,0)" points="100,53 97,55" stroke="black" /><polygon fill="rgb(144,132,129)" points="156,130 149,130 148,126 134,128 132,123 129,122 138,111 138,103 131,96 118,96 101,105 99,104 100,96 94,94 85,81 97,75 96,68 110,67 113,61 121,62 123,65 131,64 135,61 136,66 134,68 145,72 142,84 152,86 153,93 157,96 150,102 151,105 157,108 152,113 157,118 153,122 157,126" stroke="black" /><polygon fill="rgb(153,153,153)" points="209,255 182,207 184,206 199,212 211,211 226,201 242,185 249,167 249,153 243,132 234,112 233,95 241,76 255,62" stroke="black" /><polygon fill="rgb(40,8,3)" points="27,95 24,98 15,99 10,93 15,88 23,88 26,90" stroke="black" /><polygon fill="rgb(66,40,33)" points="0,136 0,95 1,99 10,105 30,108 72,99 77,100 81,115 76,117 75,110 66,105 51,108 43,117 43,123 47,132 37,140 28,135" stroke="black" /><polygon fill="rgb(112,107,98)" points="0,228 0,139 29,139 31,142 39,144 51,133 60,139 66,140 66,136 54,131 47,122 47,118 57,110 70,111 72,113 70,129 75,130 80,120 90,116 102,117 103,122 107,119 118,121 124,110 120,100 130,100 134,104 134,110 123,121 129,130 128,139 123,143 128,156 111,149 95,138 91,139 77,151 52,167 50,175 56,183 47,193 47,202 45,200 41,201 43,194 52,185 45,174 49,162 35,157 21,177 17,207 7,222" stroke="black" /><polygon fill="rgb(160,96,77)" points="119,106 119,112 116,116 107,115 104,112 106,107 114,104" stroke="black" /><polygon fill="rgb(186,186,187)" points="108,131 118,130 119,127 110,128" stroke="black" /><polygon fill="rgb(7,7,6)" points="124,131 127,130 126,127 123,129" stroke="black" /><polygon fill="rgb(166,165,164)" points="136,145 132,140 134,134 146,130 148,140 142,140" stroke="black" /><polygon fill="rgb(196,181,151)" points="151,140 148,141" stroke="black" /><polygon fill="rgb(107,107,107)" points="0,224 7,218 15,205 15,189 19,173 35,150 34,147 25,142 0,143" stroke="black" /><polygon fill="rgb(234,212,169)" points="101,147 94,147 94,145 97,143" stroke="black" /><polygon fill="rgb(94,93,92)" points="152,147 144,152 144,157 148,161 145,166 147,169 146,174 137,175 134,182 128,182 128,179 125,180 124,178 114,181 113,176 105,173 105,170 101,168 107,160 106,158 99,158 104,151 109,151 119,158 131,161 134,156 128,147 130,144 136,150 139,150 144,144 148,148" stroke="black" /><polygon fill="rgb(146,146,146)" points="24,146 29,151 15,173 11,190 11,205 0,219 0,147" stroke="black" /><polygon fill="rgb(148,146,143)" points="0,232 12,222 20,210 23,199 23,183 36,161 44,164 41,175 47,182 47,185 39,193 36,204 39,206 49,205 51,203 51,194 60,184 60,180 55,176 56,168 83,152 83,165 67,191 62,206 63,213 85,232 73,255" stroke="black" /><polygon fill="rgb(132,132,132)" points="91,255 109,239 96,223 110,207 126,196 131,196 143,215 193,254" stroke="black" /></svg>