<svg viewBox="0 0 256 256" xmlns="http://www.w3.org/2000/svg"><path fill="none" stroke="black" d="M 59,239 Q 59,239 59,241 "/><path fill="none" stroke="black" d="M 79,238 Q 79,240 80,241 M 80,241 Q 80,242 80,240 "/><path fill="none" stroke="black" d="M 62,237 Q 62,239 61,240 M 61,240 Q 61,241 62,240 "/><path fill="none" stroke="black" d="M 79,233 Q 79,233 80,233 "/><path fill="none" stroke="black" d="M 88,232 Q 88,232 91,232 "/><path fill="none" stroke="black" d="M 216,231 Q 215,232 214,232 M 214,232 Q 214,233 210,237 M 210,237 Q 210,239 211,240 M 211,240 Q 212,240 214,238 M 214,238 Q 215,238 216,237 M 216,237 Q 216,236 217,235 M 217,235 Q 217,234 218,233 M 218,233 Q 218,232 218,233 M 218,233 Q 217,234 217,235 M 217,235 Q 214,238 213,238 M 213,238 Q 213,239 212,240 M 212,240 Q 210,238 213,235 "/><path fill="none" stroke="black" d="M 94,231 Q 94,231 95,231 "/><path fill="none" stroke="black" d="M 97,230 Q 97,230 98,230 "/><path fill="none" stroke="black" d="M 207,229 Q 207,230 205,232 M 205,232 Q 205,236 205,233 M 205,233 Q 207,231 207,230 "/><path fill="none" stroke="black" d=""/><path fill="none" stroke="black" d="M 100,221 Q 101,222 101,227 "/><path fill="none" stroke="black" d=""/><path fill="none" stroke="black" d="M 86,206 Q 86,206 91,211 "/><path fill="none" stroke="black" d="M 131,202 Q 132,202 133,203 M 133,203 Q 135,203 133,203 "/><path fill="none" stroke="black" d="M 83,202 Q 83,202 84,203 "/><path fill="none" stroke="black" d="M 81,198 Q 82,199 82,200 "/><path fill="none" stroke="black" d="M 179,194 Q 178,195 178,196 "/><path fill="none" stroke="black" d="M 80,194 Q 80,194 80,196 "/><path fill="none" stroke="black" d="M 133,192 Q 134,191 136,191 M 136,191 Q 138,193 138,194 M 138,194 Q 137,195 135,195 "/><path fill="none" stroke="black" d="M 133,191 Q 133,194 134,195 M 134,195 Q 138,195 138,192 "/><path fill="none" stroke="black" d=""/><path fill="none" stroke="black" d="M 158,190 Q 158,191 157,192 M 157,192 Q 157,194 156,195 M 156,195 Q 156,196 150,202 M 150,202 Q 149,202 148,203 M 148,203 Q 146,203 145,204 M 145,204 Q 137,204 145,204 M 145,204 Q 146,203 148,203 M 148,203 Q 149,202 150,202 M 150,202 Q 156,196 156,195 M 156,195 Q 157,194 157,192 "/><path fill="none" stroke="black" d="M 178,182 Q 178,184 177,185 M 177,185 Q 177,193 176,194 M 176,194 Q 176,195 175,196 M 175,196 Q 176,195 176,194 M 176,194 Q 177,193 177,185 "/><path fill="none" stroke="black" d="M 96,178 Q 95,179 91,179 M 91,179 Q 90,180 88,180 M 88,180 Q 87,181 86,181 M 86,181 Q 86,182 84,184 M 84,184 Q 84,186 83,187 M 83,187 Q 83,193 84,192 M 84,192 Q 85,193 85,190 M 85,190 Q 86,189 86,188 M 86,188 Q 91,183 92,183 M 92,183 Q 93,182 96,182 M 96,182 Q 97,181 100,181 M 100,181 Q 101,180 103,180 M 103,180 Q 101,180 100,181 M 100,181 Q 97,181 96,182 M 96,182 Q 93,182 92,183 M 92,183 Q 90,183 86,187 M 86,187 Q 86,189 85,190 M 85,190 Q 85,191 84,192 M 84,192 Q 83,191 83,187 M 83,187 Q 84,186 84,185 M 84,185 Q 86,183 86,182 M 86,182 Q 87,181 88,181 M 88,181 Q 89,180 90,180 M 90,180 Q 91,179 95,179 M 95,179 Q 96,178 100,178 "/><path fill="none" stroke="black" d="M 102,177 Q 102,177 105,177 "/><path fill="none" stroke="black" d="M 213,176 Q 213,176 214,177 "/><path fill="none" stroke="black" d="M 107,176 Q 107,176 108,176 "/><path fill="none" stroke="black" d="M 207,173 Q 208,174 210,174 M 210,174 Q 211,175 210,174 M 210,174 Q 209,174 208,173 "/><path fill="none" stroke="black" d="M 190,172 Q 190,174 188,176 M 188,176 Q 188,177 187,178 M 187,178 Q 187,179 186,180 M 186,180 Q 186,183 184,185 M 184,185 Q 183,184 183,186 M 183,186 Q 184,185 185,185 M 185,185 Q 185,184 186,183 M 186,183 Q 186,180 188,178 M 188,178 Q 188,177 189,176 M 189,176 Q 189,175 190,174 "/><path fill="none" stroke="black" d="M 188,172 Q 186,174 186,175 M 186,175 Q 185,176 185,177 M 185,177 Q 186,176 186,175 "/><path fill="none" stroke="black" d="M 157,171 Q 157,173 158,174 M 158,174 Q 158,176 159,177 M 159,177 Q 159,188 159,177 M 159,177 Q 158,176 158,174 "/><path fill="none" stroke="black" d="M 125,169 Q 124,170 123,170 M 123,170 Q 124,170 125,169 M 125,169 Q 126,170 126,171 M 126,171 Q 123,174 124,173 M 124,173 Q 125,173 126,172 "/><path fill="none" stroke="black" d="M 155,168 Q 155,168 156,169 "/><path fill="none" stroke="black" d="M 124,164 Q 124,166 122,168 M 122,168 Q 123,168 124,167 M 124,167 Q 124,165 125,164 M 125,164 Q 127,166 127,167 M 127,167 Q 128,168 128,170 M 128,170 Q 129,171 128,172 M 128,172 Q 128,173 126,175 M 126,175 Q 125,175 124,176 M 124,176 Q 123,176 124,176 M 124,176 Q 125,175 126,175 M 126,175 Q 128,173 128,172 M 128,172 Q 129,171 128,170 M 128,170 Q 128,168 127,167 M 127,167 Q 127,165 126,164 "/><path fill="none" stroke="black" d="M 182,163 Q 182,166 181,167 M 181,167 Q 181,172 180,173 M 180,173 Q 180,175 179,176 M 179,176 Q 179,177 176,180 M 176,180 Q 175,180 174,181 M 174,181 Q 172,181 171,182 M 171,182 Q 170,181 169,181 M 169,181 Q 168,180 168,179 M 168,179 Q 167,178 167,177 M 167,177 Q 166,176 166,175 M 166,175 Q 165,174 165,173 M 165,173 Q 164,172 164,171 M 164,171 Q 163,170 164,171 M 164,171 Q 164,172 165,173 M 165,173 Q 165,174 166,175 M 166,175 Q 166,176 167,177 M 167,177 Q 167,178 168,179 M 168,179 Q 168,181 170,181 M 170,181 Q 171,182 172,181 M 172,181 Q 175,181 176,180 M 176,180 Q 177,180 179,178 M 179,178 Q 179,176 180,175 M 180,175 Q 180,173 181,172 M 181,172 Q 181,167 182,166 M 182,166 Q 182,164 183,163 M 183,163 Q 184,164 184,169 M 184,169 Q 183,170 183,174 M 183,174 Q 182,175 182,179 M 182,179 Q 181,180 181,183 M 181,183 Q 180,184 180,191 M 180,191 Q 181,192 181,194 M 181,194 Q 182,195 182,196 M 182,196 Q 184,198 184,199 M 184,199 Q 185,199 188,202 M 188,202 Q 198,202 199,201 M 199,201 Q 201,201 202,200 M 202,200 Q 203,200 204,199 M 204,199 Q 205,199 207,197 M 207,197 Q 208,197 211,194 M 211,194 Q 212,194 213,193 M 213,193 Q 213,192 216,189 M 216,189 Q 216,187 217,186 M 217,186 Q 217,181 218,180 M 218,180 Q 216,178 218,180 M 218,180 Q 217,181 217,186 M 217,186 Q 216,187 216,188 M 216,188 Q 213,191 213,192 M 213,192 Q 211,194 210,194 M 210,194 Q 207,197 206,197 M 206,197 Q 204,199 203,199 M 203,199 Q 202,200 201,200 M 201,200 Q 200,201 199,201 M 199,201 Q 198,202 188,202 M 188,202 Q 184,198 184,197 M 184,197 Q 182,195 182,194 M 182,194 Q 181,193 181,192 M 181,192 Q 180,191 180,184 M 180,184 Q 181,183 181,180 M 181,180 Q 182,179 182,175 M 182,175 Q 183,174 183,170 M 183,170 Q 184,169 184,163 "/><path fill="none" stroke="black" d="M 197,158 Q 199,160 199,163 M 199,163 Q 200,164 200,166 M 200,166 Q 202,168 202,169 M 202,169 Q 205,172 202,169 M 202,169 Q 202,167 203,166 M 203,166 Q 203,165 203,166 M 203,166 Q 202,167 200,165 M 200,165 Q 200,164 199,163 "/><path fill="none" stroke="black" d="M 146,157 Q 147,158 148,158 M 148,158 Q 159,169 159,170 M 159,170 Q 161,172 161,173 M 161,173 Q 163,175 163,176 M 163,176 Q 164,177 164,178 M 164,178 Q 165,179 165,180 M 165,180 Q 166,181 166,183 M 166,183 Q 167,184 167,195 M 167,195 Q 166,196 166,198 M 166,198 Q 165,199 165,200 M 165,200 Q 164,201 164,202 M 164,202 Q 162,204 162,205 M 162,205 Q 159,208 160,207 M 160,207 Q 161,207 162,206 M 162,206 Q 162,205 164,203 M 164,203 Q 164,202 165,201 M 165,201 Q 165,200 166,199 M 166,199 Q 166,196 167,195 M 167,195 Q 167,184 166,183 M 166,183 Q 166,181 165,180 M 165,180 Q 165,179 164,178 M 164,178 Q 164,176 163,175 M 163,175 Q 163,174 161,172 M 161,172 Q 161,171 159,169 M 159,169 Q 159,168 150,159 M 150,159 Q 149,159 148,158 "/><path fill="none" stroke="black" d="M 194,154 Q 194,154 195,155 "/><path fill="none" stroke="black" d="M 190,150 Q 190,150 191,151 "/><path fill="none" stroke="black" d="M 187,148 Q 187,148 188,149 "/><path fill="none" stroke="black" d="M 182,147 Q 182,147 185,147 "/><path fill="none" stroke="black" d="M 162,146 Q 162,146 165,146 "/><path fill="none" stroke="black" d="M 159,145 Q 159,145 160,145 "/><path fill="none" stroke="black" d="M 135,145 Q 143,153 144,153 M 144,153 Q 145,154 146,154 M 146,154 Q 148,156 149,156 M 149,156 Q 150,157 151,157 M 151,157 Q 161,167 159,165 M 159,165 Q 159,164 155,160 M 155,160 Q 154,160 151,157 M 151,157 Q 150,157 148,155 M 148,155 Q 147,155 146,154 M 146,154 Q 145,154 143,152 "/><path fill="none" stroke="black" d=""/><path fill="none" stroke="black" d="M 37,144 Q 38,143 39,144 M 39,144 Q 39,145 38,146 "/><path fill="none" stroke="black" d="M 45,142 Q 45,142 45,145 "/><path fill="none" stroke="black" d="M 134,141 Q 134,141 134,143 "/><path fill="none" stroke="black" d="M 100,139 Q 100,139 100,140 "/><path fill="none" stroke="black" d="M 67,139 Q 67,139 69,139 "/><path fill="none" stroke="black" d="M 81,138 Q 80,139 79,139 M 79,139 Q 80,139 81,138 "/><path fill="none" stroke="black" d="M 64,138 Q 64,138 65,138 "/><path fill="none" stroke="black" d="M 29,138 Q 29,139 28,140 M 28,140 Q 19,140 18,141 M 18,141 Q 10,141 18,141 M 18,141 Q 19,140 28,140 M 28,140 Q 29,141 29,144 "/><path fill="none" stroke="black" d=""/><path fill="none" stroke="black" d="M 223,135 Q 228,140 228,142 M 228,142 Q 228,140 229,139 M 229,139 Q 230,140 229,139 M 229,139 Q 229,138 228,139 M 228,139 Q 227,138 226,138 "/><path fill="none" stroke="black" d=""/><path fill="none" stroke="black" d=""/><path fill="none" stroke="black" d="M 52,133 Q 53,133 54,134 M 54,134 Q 55,134 56,135 M 56,135 Q 57,135 58,136 M 58,136 Q 60,136 61,137 M 61,137 Q 62,137 61,137 M 61,137 Q 60,136 58,136 M 58,136 Q 57,135 56,135 M 56,135 Q 55,134 54,134 "/><path fill="none" stroke="black" d="M 146,132 Q 146,135 147,136 M 147,136 Q 147,137 152,142 M 152,142 Q 153,142 154,143 M 154,143 Q 155,143 154,142 M 154,142 Q 152,142 148,138 M 148,138 Q 148,137 146,135 "/><path fill="none" stroke="black" d="M 99,132 Q 99,132 99,137 "/><path fill="none" stroke="black" d="M 50,132 Q 46,136 46,140 M 46,140 Q 47,141 48,141 M 48,141 Q 49,142 50,142 M 50,142 Q 51,143 52,143 M 52,143 Q 53,144 55,144 M 55,144 Q 56,145 57,145 M 57,145 Q 58,146 59,146 M 59,146 Q 60,147 63,147 M 63,147 Q 64,148 66,148 M 66,148 Q 67,149 68,149 M 68,149 Q 69,150 71,150 M 71,150 Q 72,151 82,151 M 82,151 Q 83,150 85,150 M 85,150 Q 86,149 89,149 M 89,149 Q 90,148 93,148 M 93,148 Q 94,147 96,147 M 96,147 Q 97,146 98,146 M 98,146 Q 99,145 100,145 M 100,145 Q 101,144 102,144 M 102,144 Q 101,143 101,142 M 101,142 Q 101,144 100,145 M 100,145 Q 99,145 98,146 M 98,146 Q 97,146 96,147 M 96,147 Q 94,147 93,148 M 93,148 Q 90,148 89,149 M 89,149 Q 86,149 85,150 M 85,150 Q 83,150 82,151 M 82,151 Q 72,151 71,150 M 71,150 Q 69,150 68,149 M 68,149 Q 67,149 66,148 M 66,148 Q 64,148 63,147 M 63,147 Q 61,147 60,146 M 60,146 Q 59,146 58,145 M 58,145 Q 56,145 55,144 M 55,144 Q 54,144 53,143 M 53,143 Q 52,143 51,142 M 51,142 Q 50,142 49,141 M 49,141 Q 48,141 46,139 "/><path fill="none" stroke="black" d="M 90,129 Q 89,130 89,132 M 89,132 Q 88,133 89,132 "/><path fill="none" stroke="black" d="M 217,128 Q 219,128 220,129 "/><path fill="none" stroke="black" d="M 133,128 Q 133,128 133,139 "/><path fill="none" stroke="black" d="M 214,127 Q 214,127 215,127 "/><path fill="none" stroke="black" d="M 145,127 Q 145,130 144,131 M 144,131 Q 144,135 144,131 "/><path fill="none" stroke="black" d=""/><path fill="none" stroke="black" d="M 200,122 Q 202,124 203,124 M 203,124 Q 205,126 206,126 M 206,126 Q 207,127 208,127 M 208,127 Q 209,128 210,128 M 210,128 Q 211,129 212,129 M 212,129 Q 213,130 218,130 M 218,130 Q 219,131 221,131 M 221,131 Q 222,132 221,131 M 221,131 Q 222,130 221,131 M 221,131 Q 219,131 218,130 M 218,130 Q 213,130 212,129 M 212,129 Q 211,129 210,128 M 210,128 Q 209,128 208,127 M 208,127 Q 207,127 205,125 M 205,125 Q 204,125 203,124 "/><path fill="none" stroke="black" d="M 146,122 Q 146,122 146,124 "/><path fill="none" stroke="black" d="M 96,119 Q 93,122 93,123 M 93,123 Q 92,124 92,125 M 92,125 Q 91,126 91,127 M 91,127 Q 91,126 92,125 M 92,125 Q 92,124 93,123 "/><path fill="none" stroke="black" d="M 197,118 Q 197,119 198,120 M 198,120 Q 197,119 198,118 "/><path fill="none" stroke="black" d="M 36,118 Q 37,117 40,117 M 40,117 Q 42,119 42,120 M 42,120 Q 43,121 43,122 M 43,122 Q 45,124 45,125 M 45,125 Q 46,126 47,126 M 47,126 Q 49,128 49,129 M 49,129 Q 48,130 46,128 M 46,128 Q 41,128 40,129 M 40,129 Q 39,129 38,130 M 38,130 Q 37,129 37,128 M 37,128 Q 36,127 36,126 M 36,126 Q 35,125 35,120 "/><path fill="none" stroke="black" d="M 151,116 Q 151,116 148,119 "/><path fill="none" stroke="black" d="M 129,116 Q 130,117 130,119 M 130,119 Q 131,120 131,122 M 131,122 Q 132,123 132,126 M 132,126 Q 132,123 131,122 M 131,122 Q 131,119 130,118 "/><path fill="none" stroke="black" d="M 99,116 Q 99,116 99,125 "/><path fill="none" stroke="black" d="M 101,115 Q 101,135 102,136 M 102,136 Q 102,139 103,140 M 103,140 Q 103,142 104,143 M 104,143 Q 104,144 112,152 M 112,152 Q 112,153 116,157 M 116,157 Q 116,158 118,160 M 118,160 Q 118,162 119,163 M 119,163 Q 119,165 120,166 M 120,166 Q 120,170 117,173 M 117,173 Q 117,174 116,175 M 116,175 Q 116,177 115,178 M 115,178 Q 115,179 114,180 M 114,180 Q 114,182 113,183 M 113,183 Q 113,193 114,194 M 114,194 Q 114,197 115,198 M 115,198 Q 115,200 116,201 M 116,201 Q 117,201 115,199 M 115,199 Q 115,198 114,197 M 114,197 Q 114,194 113,193 M 113,193 Q 113,188 114,187 M 114,187 Q 113,186 113,183 M 113,183 Q 114,182 116,184 M 116,184 Q 116,185 117,186 M 117,186 Q 117,187 116,188 M 116,188 Q 116,191 118,193 M 118,193 Q 118,194 120,196 M 120,196 Q 120,197 124,201 M 124,201 Q 125,201 127,203 M 127,203 Q 128,203 129,204 M 129,204 Q 130,204 131,205 M 131,205 Q 132,205 133,206 M 133,206 Q 135,206 136,207 M 136,207 Q 138,207 139,208 M 139,208 Q 151,208 152,207 M 152,207 Q 155,207 156,206 M 156,206 Q 158,206 156,206 M 156,206 Q 155,207 152,207 M 152,207 Q 151,208 139,208 M 139,208 Q 138,207 136,207 M 136,207 Q 135,206 134,206 M 134,206 Q 133,205 132,205 M 132,205 Q 131,204 130,204 M 130,204 Q 129,203 128,203 M 128,203 Q 126,201 125,201 M 125,201 Q 120,196 120,195 M 120,195 Q 117,192 117,191 M 117,191 Q 116,190 116,188 M 116,188 Q 117,187 117,186 M 117,186 Q 116,185 116,183 M 116,183 Q 115,183 114,182 M 114,182 Q 114,180 115,179 M 115,179 Q 115,178 116,177 M 116,177 Q 116,175 117,174 M 117,174 Q 117,173 120,170 M 120,170 Q 120,166 119,165 M 119,165 Q 119,162 118,161 M 118,161 Q 118,160 117,159 M 117,159 Q 117,158 114,155 M 114,155 Q 114,154 107,147 M 107,147 Q 107,146 104,143 M 104,143 Q 104,142 103,141 M 103,141 Q 103,140 102,139 M 102,139 Q 102,136 101,135 "/><path fill="none" stroke="black" d="M 169,113 Q 170,112 177,112 M 177,112 Q 178,113 183,113 M 183,113 Q 187,117 188,117 M 188,117 Q 189,118 190,118 M 190,118 Q 191,119 193,119 M 193,119 Q 197,123 197,124 M 197,124 Q 200,127 201,127 M 201,127 Q 202,128 203,128 M 203,128 Q 205,130 206,130 M 206,130 Q 207,131 208,131 M 208,131 Q 209,132 210,132 M 210,132 Q 211,133 213,133 M 213,133 Q 215,135 216,135 M 216,135 Q 217,136 218,136 M 218,136 Q 219,137 220,137 M 220,137 Q 225,142 225,143 M 225,143 Q 226,144 226,148 M 226,148 Q 225,149 225,150 M 225,150 Q 223,152 223,153 M 223,153 Q 220,156 219,156 M 219,156 Q 218,157 217,157 M 217,157 Q 215,159 212,159 M 212,159 Q 211,160 206,160 M 206,160 Q 205,159 203,159 M 203,159 Q 202,158 201,158 M 201,158 Q 200,157 200,156 M 200,156 Q 198,154 198,153 M 198,153 Q 192,147 191,147 M 191,147 Q 190,146 188,146 M 188,146 Q 187,145 185,145 M 185,145 Q 184,144 166,144 M 166,144 Q 165,143 161,143 M 161,143 Q 160,142 159,142 M 159,142 Q 158,141 157,141 M 157,141 Q 156,140 155,140 M 155,140 Q 150,135 150,134 M 150,134 Q 149,133 149,131 M 149,131 Q 148,130 148,125 M 148,125 Q 149,124 149,123 M 149,123 Q 155,117 156,117 M 156,117 Q 157,116 158,116 M 158,116 Q 159,115 160,115 M 160,115 Q 161,114 164,114 "/><path fill="none" stroke="black" d="M 127,113 Q 127,113 128,114 "/><path fill="none" stroke="black" d="M 167,110 Q 167,110 169,110 "/><path fill="none" stroke="black" d="M 172,105 Q 171,106 169,106 M 169,106 Q 168,107 167,107 M 167,107 Q 164,110 162,110 M 162,110 Q 161,111 160,111 M 160,111 Q 159,112 158,112 M 158,112 Q 157,113 156,113 M 156,113 Q 155,114 154,114 M 154,114 Q 153,115 154,114 M 154,114 Q 155,114 156,113 M 156,113 Q 157,113 158,112 M 158,112 Q 160,112 162,110 M 162,110 Q 164,110 166,108 M 166,108 Q 167,108 169,106 M 169,106 Q 171,106 172,105 M 172,105 Q 179,105 180,106 M 180,106 Q 192,106 193,105 M 193,105 Q 194,105 193,105 M 193,105 Q 192,106 180,106 "/><path fill="none" stroke="black" d="M 115,105 Q 117,105 118,106 M 118,106 Q 119,106 120,107 M 120,107 Q 121,107 123,109 M 123,109 Q 121,107 120,107 M 120,107 Q 119,106 118,106 "/><path fill="none" stroke="black" d="M 104,104 Q 102,106 103,105 M 103,105 Q 104,105 105,104 "/><path fill="none" stroke="black" d="M 197,102 Q 197,103 196,104 M 196,104 Q 196,106 191,111 M 191,111 Q 190,111 189,112 M 189,112 Q 185,112 184,113 M 184,113 Q 178,113 177,112 M 177,112 Q 170,112 169,113 M 169,113 Q 165,113 164,114 M 164,114 Q 161,114 160,115 M 160,115 Q 159,115 158,116 M 158,116 Q 156,116 155,117 M 155,117 Q 154,117 149,122 M 149,122 Q 149,124 148,125 M 148,125 Q 148,130 149,131 M 149,131 Q 149,134 150,135 M 150,135 Q 150,136 154,140 M 154,140 Q 155,140 156,141 M 156,141 Q 157,141 158,142 M 158,142 Q 160,142 161,143 M 161,143 Q 165,143 166,144 M 166,144 Q 184,144 185,145 M 185,145 Q 187,145 188,146 M 188,146 Q 189,146 190,147 M 190,147 Q 191,147 198,154 M 198,154 Q 198,155 200,157 M 200,157 Q 200,158 202,158 M 202,158 Q 203,159 205,159 M 205,159 Q 206,160 211,160 M 211,160 Q 212,159 215,159 M 215,159 Q 216,158 217,158 M 217,158 Q 218,157 219,157 M 219,157 Q 220,156 221,156 M 221,156 Q 223,154 223,153 M 223,153 Q 225,151 225,149 M 225,149 Q 226,148 226,144 M 226,144 Q 225,143 225,141 M 225,141 Q 221,137 220,137 M 220,137 Q 219,136 218,136 M 218,136 Q 217,135 216,135 M 216,135 Q 214,133 212,133 M 212,133 Q 211,132 210,132 M 210,132 Q 209,131 208,131 M 208,131 Q 207,130 206,130 M 206,130 Q 204,128 203,128 M 203,128 Q 202,127 201,127 M 201,127 Q 197,123 197,122 M 197,122 Q 195,120 194,120 M 194,120 Q 193,119 192,119 M 192,119 Q 191,118 190,118 M 190,118 Q 189,117 188,117 M 188,117 Q 184,113 185,112 M 185,112 Q 189,112 190,111 M 190,111 Q 192,111 196,107 M 196,107 Q 196,105 197,104 "/><path fill="none" stroke="black" d="M 101,102 Q 101,102 101,104 "/><path fill="none" stroke="black" d="M 198,99 Q 198,99 198,100 "/><path fill="none" stroke="black" d="M 100,99 Q 100,99 100,100 "/><path fill="none" stroke="black" d=""/><path fill="none" stroke="black" d="M 141,98 Q 141,98 143,98 "/><path fill="none" stroke="black" d=""/><path fill="none" stroke="black" d="M 174,96 Q 174,96 176,96 "/><path fill="none" stroke="black" d="M 182,93 Q 181,94 180,94 M 180,94 Q 179,95 178,95 M 178,95 Q 179,95 180,94 "/><path fill="none" stroke="black" d="M 129,91 Q 128,92 129,93 M 129,93 Q 130,92 131,92 "/><path fill="none" stroke="black" d="M 125,88 Q 125,88 127,88 "/><path fill="none" stroke="black" d="M 207,86 Q 208,87 209,87 "/><path fill="none" stroke="black" d="M 211,82 Q 211,82 212,82 "/><path fill="none" stroke="black" d="M 191,82 Q 192,83 192,85 M 192,85 Q 193,86 193,87 M 193,87 Q 201,95 201,94 M 201,94 Q 193,86 193,85 M 193,85 Q 192,84 192,82 "/><path fill="none" stroke="black" d="M 208,81 Q 208,83 210,85 M 210,85 Q 212,85 213,86 M 213,86 Q 216,86 213,86 M 213,86 Q 212,85 211,85 "/><path fill="none" stroke="black" d="M 124,81 Q 123,82 123,83 M 123,83 Q 124,82 125,83 M 125,83 Q 128,83 129,84 M 129,84 Q 129,82 128,83 M 128,83 Q 125,83 124,82 "/><path fill="none" stroke="black" d="M 127,78 Q 127,78 128,78 "/><path fill="none" stroke="black" d="M 93,77 Q 94,78 94,80 M 94,80 Q 93,81 92,81 M 92,81 Q 91,82 90,82 "/><path fill="none" stroke="black" d="M 92,77 Q 86,83 86,84 M 86,84 Q 79,91 78,91 M 78,91 Q 76,93 77,94 M 77,94 Q 78,94 79,95 M 79,95 Q 81,95 79,95 M 79,95 Q 77,93 79,91 M 79,91 Q 80,91 86,85 M 86,85 Q 86,84 89,81 M 89,81 Q 90,82 91,82 M 91,82 Q 92,81 93,81 M 93,81 Q 94,82 94,83 M 94,83 Q 93,84 93,86 M 93,86 Q 91,88 91,89 M 91,89 Q 85,95 83,95 M 83,95 Q 85,95 87,93 M 87,93 Q 88,93 89,92 M 89,92 Q 89,91 92,88 M 92,88 Q 92,87 93,86 M 93,86 Q 93,84 94,83 "/><path fill="none" stroke="black" d="M 41,76 Q 44,79 44,80 M 44,80 Q 46,82 46,83 M 46,83 Q 51,88 52,88 M 52,88 Q 53,89 64,89 M 64,89 Q 65,88 66,88 M 66,88 Q 65,88 64,89 M 64,89 Q 53,89 52,88 M 52,88 Q 51,88 46,83 M 46,83 Q 46,82 45,81 M 45,81 Q 45,80 43,78 M 43,78 Q 43,77 42,76 "/><path fill="none" stroke="black" d="M 131,74 Q 130,75 127,75 M 127,75 Q 130,75 131,74 M 131,74 Q 132,74 133,75 M 133,75 Q 131,77 130,77 M 130,77 Q 132,77 133,76 "/><path fill="none" stroke="black" d="M 123,74 Q 123,74 124,74 "/><path fill="none" stroke="black" d="M 211,73 Q 210,74 208,74 M 208,74 Q 210,74 211,73 "/><path fill="none" stroke="black" d="M 120,73 Q 120,73 121,73 "/><path fill="none" stroke="black" d="M 129,72 Q 128,73 127,73 M 127,73 Q 129,73 130,72 "/><path fill="none" stroke="black" d="M 216,71 Q 217,72 217,71 "/><path fill="none" stroke="black" d="M 209,70 Q 212,70 214,72 M 214,72 Q 214,73 215,74 M 215,74 Q 215,78 214,79 M 214,79 Q 208,79 206,77 M 206,77 Q 206,76 205,75 M 205,75 Q 206,74 206,73 "/><path fill="none" stroke="black" d="M 34,69 Q 34,69 34,70 "/><path fill="none" stroke="black" d="M 236,67 Q 234,69 233,69 M 233,69 Q 231,71 230,71 M 230,71 Q 228,73 227,73 M 227,73 Q 226,74 225,74 M 225,74 Q 223,76 222,76 M 222,76 Q 221,77 218,77 M 218,77 Q 217,78 218,77 M 218,77 Q 221,77 222,76 M 222,76 Q 224,76 226,74 M 226,74 Q 227,74 228,73 M 228,73 Q 229,73 232,70 M 232,70 Q 233,70 234,69 M 234,69 Q 235,69 237,67 "/><path fill="none" stroke="black" d="M 39,67 Q 40,68 39,69 M 39,69 Q 40,68 41,69 M 41,69 Q 43,69 44,70 M 44,70 Q 43,69 41,69 "/><path fill="none" stroke="black" d="M 115,66 Q 115,67 109,73 M 109,73 Q 108,73 106,75 M 106,75 Q 105,75 105,76 M 105,76 Q 106,75 107,75 M 107,75 Q 111,71 112,71 M 112,71 Q 114,69 114,68 "/><path fill="none" stroke="black" d="M 34,65 Q 34,65 34,66 "/><path fill="none" stroke="black" d="M 39,64 Q 40,63 43,63 M 43,63 Q 47,67 47,71 M 47,71 Q 45,73 44,73 M 44,73 Q 43,74 42,73 M 42,73 Q 40,73 36,69 M 36,69 Q 36,66 38,64 "/><path fill="none" stroke="black" d="M 232,63 Q 233,62 237,62 M 237,62 Q 238,63 239,63 M 239,63 Q 242,66 242,67 M 242,67 Q 243,68 243,70 M 243,70 Q 242,71 242,74 M 242,74 Q 241,75 241,76 M 241,76 Q 240,77 240,78 M 240,78 Q 234,84 233,84 M 233,84 Q 231,86 228,86 M 228,86 Q 227,87 220,87 M 220,87 Q 218,85 218,83 M 218,83 Q 216,81 215,81 M 215,81 Q 214,80 215,79 M 215,79 Q 215,74 214,73 M 214,73 Q 214,71 213,70 M 213,70 Q 208,70 207,69 M 207,69 Q 208,68 209,68 M 209,68 Q 210,67 212,67 M 212,67 Q 213,68 217,68 M 217,68 Q 218,67 221,67 M 221,67 Q 222,66 224,66 M 224,66 Q 225,65 226,65 M 226,65 Q 227,64 229,64 "/><path fill="none" stroke="black" d="M 39,63 Q 38,64 37,64 M 37,64 Q 36,65 36,70 M 36,70 Q 39,73 42,73 M 42,73 Q 43,74 44,73 M 44,73 Q 46,73 47,72 M 47,72 Q 47,66 44,63 "/><path fill="none" stroke="black" d="M 201,59 Q 201,65 197,69 M 197,69 Q 196,69 193,72 M 193,72 Q 193,73 192,74 M 192,74 Q 192,76 191,77 M 191,77 Q 191,78 188,81 M 188,81 Q 188,82 186,84 M 186,84 Q 186,85 180,91 M 180,91 Q 179,91 177,93 M 177,93 Q 174,93 173,94 M 173,94 Q 148,94 147,95 M 147,95 Q 141,95 140,96 M 140,96 Q 135,96 134,95 M 134,95 Q 135,94 135,93 M 135,93 Q 136,92 136,91 M 136,91 Q 135,90 135,89 M 135,89 Q 134,88 131,88 M 131,88 Q 130,87 134,83 M 134,83 Q 134,81 133,80 M 133,80 Q 127,80 132,80 M 132,80 Q 134,82 130,86 M 130,86 Q 130,88 133,88 M 133,88 Q 136,91 136,92 M 136,92 Q 133,95 133,96 M 133,96 Q 130,99 128,99 M 128,99 Q 126,97 126,95 M 126,95 Q 125,94 125,93 M 125,93 Q 123,91 123,88 M 123,88 Q 122,87 122,86 M 122,86 Q 121,85 121,84 M 121,84 Q 120,83 120,80 M 120,80 Q 119,79 119,77 M 119,77 Q 118,76 118,70 M 118,70 Q 117,69 117,65 M 117,65 Q 117,69 118,70 M 118,70 Q 118,73 116,75 M 116,75 Q 115,75 107,83 M 107,83 Q 106,83 105,84 M 105,84 Q 104,84 103,85 M 103,85 Q 103,86 102,87 M 102,87 Q 102,89 101,90 M 101,90 Q 101,91 100,92 M 100,92 Q 100,93 98,95 M 98,95 Q 98,96 99,97 M 99,97 Q 98,96 98,95 M 98,95 Q 100,93 100,92 M 100,92 Q 101,91 101,90 M 101,90 Q 102,89 102,87 M 102,87 Q 105,84 106,84 M 106,84 Q 107,83 108,83 M 108,83 Q 117,74 118,75 M 118,75 Q 118,76 119,77 M 119,77 Q 119,80 120,81 M 120,81 Q 120,83 121,84 M 121,84 Q 121,85 122,86 M 122,86 Q 122,87 123,88 M 123,88 Q 123,91 124,92 M 124,92 Q 124,93 125,94 M 125,94 Q 125,95 126,96 M 126,96 Q 126,98 127,99 M 127,99 Q 130,99 131,98 M 131,98 Q 132,98 132,97 M 132,97 Q 134,95 135,96 M 135,96 Q 140,96 141,95 M 141,95 Q 147,95 148,94 M 148,94 Q 173,94 174,93 M 174,93 Q 177,93 178,92 M 178,92 Q 179,92 180,91 M 180,91 Q 181,91 186,86 M 186,86 Q 186,85 188,83 M 188,83 Q 188,82 191,79 M 191,79 Q 191,78 192,77 M 192,77 Q 193,78 193,80 M 193,80 Q 194,81 194,83 M 194,83 Q 195,84 195,85 M 195,85 Q 201,91 204,91 M 204,91 Q 201,91 200,90 M 200,90 Q 200,89 201,88 M 201,88 Q 202,88 204,86 M 204,86 Q 205,86 205,85 M 205,85 Q 206,84 206,83 M 206,83 Q 205,82 205,80 M 205,80 Q 204,79 204,78 M 204,78 Q 203,77 203,74 M 203,74 Q 203,77 204,78 M 204,78 Q 204,80 205,81 M 205,81 Q 205,82 206,83 M 206,83 Q 206,84 204,86 M 204,86 Q 203,86 200,89 M 200,89 Q 195,84 195,83 M 195,83 Q 194,82 194,81 M 194,81 Q 193,80 193,78 M 193,78 Q 194,77 193,78 M 193,78 Q 192,77 192,75 M 192,75 Q 193,74 193,73 M 193,73 Q 197,69 198,69 M 198,69 Q 201,66 201,60 M 201,60 Q 202,59 204,59 M 204,59 Q 207,62 207,64 M 207,64 Q 208,65 208,68 M 208,68 Q 207,69 208,70 M 208,70 Q 206,72 205,72 M 205,72 Q 204,71 198,71 M 198,71 Q 197,72 197,73 M 197,73 Q 196,74 197,73 M 197,73 Q 197,72 198,71 M 198,71 Q 203,71 204,72 M 204,72 Q 205,72 206,73 M 206,73 Q 206,74 205,75 M 205,75 Q 206,76 206,78 M 206,78 Q 207,79 213,79 M 213,79 Q 214,80 214,81 M 214,81 Q 215,81 218,84 M 218,84 Q 218,85 220,87 M 220,87 Q 219,88 214,88 M 214,88 Q 213,89 211,89 M 211,89 Q 209,91 208,91 M 208,91 Q 205,94 204,94 M 204,94 Q 204,95 203,96 M 203,96 Q 203,97 201,99 M 201,99 Q 201,101 200,102 M 200,102 Q 200,103 199,104 M 199,104 Q 200,105 200,114 M 200,114 Q 199,115 199,116 M 199,116 Q 200,117 200,118 M 200,118 Q 201,118 203,120 M 203,120 Q 204,120 205,121 M 205,121 Q 206,121 207,122 M 207,122 Q 209,122 210,123 M 210,123 Q 212,123 213,124 M 213,124 Q 215,124 216,125 M 216,125 Q 218,125 219,126 M 219,126 Q 221,126 223,128 M 223,128 Q 224,128 230,134 M 230,134 Q 230,135 231,136 M 231,136 Q 231,137 232,138 M 232,138 Q 232,140 233,141 M 233,141 Q 233,152 232,153 M 232,153 Q 232,155 230,157 M 230,157 Q 230,158 223,165 M 223,165 Q 222,165 220,167 M 220,167 Q 219,167 218,168 M 218,168 Q 215,168 214,169 M 214,169 Q 210,169 209,168 M 209,168 Q 204,168 209,168 M 209,168 Q 210,169 214,169 M 214,169 Q 215,168 218,168 M 218,168 Q 219,167 221,167 M 221,167 Q 223,165 224,165 M 224,165 Q 230,159 230,158 M 230,158 Q 231,157 231,156 M 231,156 Q 232,155 232,153 M 232,153 Q 233,152 233,141 M 233,141 Q 232,140 232,138 M 232,138 Q 231,137 231,135 M 231,135 Q 230,134 230,133 M 230,133 Q 225,128 224,128 M 224,128 Q 223,127 222,127 M 222,127 Q 221,126 219,126 M 219,126 Q 218,125 216,125 M 216,125 Q 215,124 213,124 M 213,124 Q 212,123 210,123 M 210,123 Q 209,122 208,122 M 208,122 Q 207,121 206,121 M 206,121 Q 205,120 204,120 M 204,120 Q 202,118 201,118 M 201,118 Q 199,116 199,115 M 199,115 Q 200,114 200,105 M 200,105 Q 199,104 200,103 M 200,103 Q 200,102 201,101 M 201,101 Q 201,100 203,98 M 203,98 Q 203,97 204,96 M 204,96 Q 204,95 205,94 M 205,94 Q 206,94 209,91 M 209,91 Q 210,91 212,89 M 212,89 Q 213,89 214,88 M 214,88 Q 219,88 220,87 M 220,87 Q 227,87 228,86 M 228,86 Q 231,86 232,85 M 232,85 Q 233,85 234,84 M 234,84 Q 235,84 240,79 M 240,79 Q 240,78 241,77 M 241,77 Q 241,75 242,74 M 242,74 Q 242,71 243,70 M 243,70 Q 243,68 242,67 M 242,67 Q 242,65 240,63 M 240,63 Q 238,63 237,62 M 237,62 Q 233,62 232,63 M 232,63 Q 230,63 229,64 M 229,64 Q 227,64 226,65 M 226,65 Q 225,65 224,66 M 224,66 Q 222,66 221,67 M 221,67 Q 218,67 217,68 M 217,68 Q 213,68 212,67 M 212,67 Q 210,67 209,68 M 209,68 Q 208,67 208,65 M 208,65 Q 207,64 207,61 "/><path fill="none" stroke="black" d="M 64,58 Q 65,59 65,60 M 65,60 Q 66,61 65,62 M 65,62 Q 64,62 64,63 M 64,63 Q 66,61 69,64 M 69,64 Q 68,65 67,65 M 67,65 Q 66,66 64,66 M 64,66 Q 62,64 62,60 "/><path fill="none" stroke="black" d="M 104,57 Q 104,57 104,60 "/><path fill="none" stroke="black" d="M 116,56 Q 116,58 115,59 M 115,59 Q 115,61 114,62 M 114,62 Q 114,63 112,65 M 112,65 Q 112,66 110,68 M 110,68 Q 110,69 108,71 M 108,71 Q 107,71 106,72 M 106,72 Q 105,71 106,72 M 106,72 Q 105,73 107,71 M 107,71 Q 108,71 112,67 M 112,67 Q 112,66 114,64 M 114,64 Q 114,62 115,61 M 115,61 Q 115,59 116,58 "/><path fill="none" stroke="black" d="M 101,56 Q 101,57 102,58 M 102,58 Q 102,81 101,82 M 101,82 Q 101,84 100,85 M 100,85 Q 100,87 99,88 M 99,88 Q 99,89 97,91 M 97,91 Q 97,92 93,96 M 93,96 Q 94,95 95,95 M 95,95 Q 97,93 97,92 M 97,92 Q 99,90 99,88 M 99,88 Q 100,87 100,85 M 100,85 Q 101,84 101,82 M 101,82 Q 102,81 102,58 M 102,58 Q 101,57 102,56 "/><path fill="none" stroke="black" d="M 93,56 Q 94,55 96,55 M 96,55 Q 97,56 96,57 M 96,57 Q 96,58 97,59 M 97,59 Q 97,81 96,82 M 96,82 Q 96,85 95,86 M 95,86 Q 95,88 93,90 M 93,90 Q 93,91 87,97 M 87,97 Q 85,97 84,98 M 84,98 Q 79,98 78,97 M 78,97 Q 77,97 76,96 M 76,96 Q 75,96 73,94 M 73,94 Q 72,94 68,90 M 68,90 Q 68,89 70,87 M 70,87 Q 71,87 72,86 M 72,86 Q 73,86 92,67 M 92,67 Q 92,66 94,64 M 94,64 Q 94,58 93,57 "/><path fill="none" stroke="black" d="M 45,56 Q 43,58 41,58 M 41,58 Q 39,60 41,58 M 41,58 Q 43,58 44,57 "/><path fill="none" stroke="black" d="M 41,56 Q 41,56 42,56 "/><path fill="none" stroke="black" d="M 72,55 Q 73,54 74,55 M 74,55 Q 75,55 76,56 M 76,56 Q 76,57 69,64 M 69,64 Q 68,63 68,62 M 68,62 Q 64,58 67,55 "/><path fill="none" stroke="black" d="M 73,54 Q 72,55 67,55 M 67,55 Q 66,56 65,56 M 65,56 Q 63,58 63,59 M 63,59 Q 62,60 62,65 M 62,65 Q 63,66 67,66 M 67,66 Q 68,65 69,65 M 69,65 Q 69,64 70,63 M 70,63 Q 71,63 76,58 M 76,58 Q 76,55 75,54 "/><path fill="none" stroke="black" d="M 65,45 Q 66,46 68,46 M 68,46 Q 69,47 71,47 M 71,47 Q 72,48 71,49 M 71,49 Q 71,50 70,51 M 70,51 Q 69,51 68,50 M 68,50 Q 68,49 67,48 M 67,48 Q 64,48 63,47 "/><path fill="none" stroke="black" d="M 109,43 Q 113,47 113,55 M 113,55 Q 112,56 112,59 M 112,59 Q 111,60 111,61 M 111,61 Q 110,62 110,63 M 110,63 Q 108,65 108,66 M 108,66 Q 106,68 105,67 M 105,67 Q 105,68 107,68 M 107,68 Q 108,67 108,66 M 108,66 Q 110,64 110,63 M 110,63 Q 111,62 111,60 M 111,60 Q 112,59 112,56 M 112,56 Q 113,55 113,47 "/><path fill="none" stroke="black" d="M 71,43 Q 70,44 69,44 "/><path fill="none" stroke="black" d="M 82,42 Q 82,43 83,44 M 83,44 Q 83,45 85,47 M 85,47 Q 86,47 88,49 M 88,49 Q 89,49 90,50 M 90,50 Q 92,50 93,51 M 93,51 Q 95,51 96,52 M 96,52 Q 98,52 100,54 M 100,54 Q 98,52 97,52 M 97,52 Q 96,51 93,51 M 93,51 Q 92,50 91,50 M 91,50 Q 90,49 89,49 M 89,49 Q 87,47 86,47 M 86,47 Q 83,44 83,43 "/><path fill="none" stroke="black" d="M 80,41 Q 80,42 76,46 M 76,46 Q 76,47 75,48 M 75,48 Q 74,48 75,48 "/><path fill="none" stroke="black" d="M 77,37 Q 77,38 76,39 M 76,39 Q 76,40 75,41 M 75,41 Q 75,42 71,46 M 71,46 Q 70,46 69,47 M 69,47 Q 68,46 66,46 M 66,46 Q 65,45 64,45 M 64,45 Q 64,46 63,47 M 63,47 Q 61,45 58,48 M 58,48 Q 57,48 56,49 M 56,49 Q 51,49 50,48 M 50,48 Q 47,48 46,49 M 46,49 Q 44,49 44,51 M 44,51 Q 42,53 44,53 M 44,53 Q 45,54 46,54 M 46,54 Q 48,52 49,52 M 49,52 Q 47,52 45,54 M 45,54 Q 43,52 44,51 M 44,51 Q 44,50 45,49 M 45,49 Q 46,50 48,50 M 48,50 Q 47,50 46,49 M 46,49 Q 47,48 50,48 M 50,48 Q 51,49 57,49 M 57,49 Q 59,47 60,47 M 60,47 Q 60,46 61,45 M 61,45 Q 62,46 62,47 M 62,47 Q 63,48 66,48 M 66,48 Q 68,50 67,51 M 67,51 Q 65,51 64,50 M 64,50 Q 63,50 64,51 M 64,51 Q 75,51 76,50 M 76,50 Q 75,50 74,51 M 74,51 Q 72,51 71,50 M 71,50 Q 71,49 72,48 M 72,48 Q 72,47 71,46 M 71,46 Q 72,45 73,45 M 73,45 Q 75,43 75,41 M 75,41 Q 76,40 76,39 M 76,39 Q 78,37 79,37 M 79,37 Q 80,38 81,38 M 81,38 Q 82,39 83,39 M 83,39 Q 84,40 86,40 M 86,40 Q 87,41 88,41 M 88,41 Q 89,42 89,43 M 89,43 Q 90,44 91,44 M 91,44 Q 93,46 94,46 M 94,46 Q 95,47 96,47 M 96,47 Q 97,48 98,48 M 98,48 Q 100,50 101,50 M 101,50 Q 107,56 107,57 M 107,57 Q 108,58 108,59 M 108,59 Q 108,57 107,56 M 107,56 Q 107,55 102,50 M 102,50 Q 101,50 99,48 M 99,48 Q 98,48 97,47 M 97,47 Q 96,47 95,46 M 95,46 Q 94,46 92,44 M 92,44 Q 91,44 88,41 M 88,41 Q 89,40 93,40 M 93,40 Q 85,40 84,39 M 84,39 Q 82,39 80,37 "/><path fill="none" stroke="black" d="M 97,36 Q 97,37 99,39 M 99,39 Q 100,39 103,42 M 103,42 Q 102,43 101,43 M 101,43 Q 99,41 97,41 M 97,41 Q 96,40 96,39 M 96,39 Q 95,39 96,40 M 96,40 Q 96,41 98,41 M 98,41 Q 100,43 103,43 M 103,43 Q 103,41 101,39 M 101,39 Q 100,39 99,38 M 99,38 Q 98,38 97,37 "/><path fill="none" stroke="black" d="M 91,36 Q 92,35 93,35 M 93,35 Q 94,36 93,37 "/><path fill="none" stroke="black" d="M 64,33 Q 65,33 66,34 M 66,34 Q 62,38 61,37 "/><path fill="none" stroke="black" d="M 89,32 Q 90,32 92,34 M 92,34 Q 89,37 86,37 "/><path fill="none" stroke="black" d="M 71,32 Q 72,32 73,33 M 73,33 Q 71,35 70,35 "/><path fill="none" stroke="black" d="M 70,32 Q 69,33 69,35 M 69,35 Q 72,35 73,34 "/><path fill="none" stroke="black" d="M 85,30 Q 84,31 84,35 M 84,35 Q 86,37 90,37 M 90,37 Q 91,36 92,37 M 92,37 Q 94,37 94,31 M 94,31 Q 93,30 91,30 M 91,30 Q 92,30 94,32 M 94,32 Q 94,34 93,35 M 93,35 Q 92,34 92,33 M 92,33 Q 91,32 87,32 M 87,32 Q 87,33 86,34 M 86,34 Q 86,35 85,36 M 85,36 Q 84,35 84,32 "/><path fill="none" stroke="black" d="M 43,30 Q 43,30 51,30 "/><path fill="none" stroke="black" d="M 39,29 Q 39,29 40,29 "/><path fill="none" stroke="black" d="M 36,28 Q 36,28 37,28 "/><path fill="none" stroke="black" d=""/><path fill="none" stroke="black" d="M 71,24 Q 74,24 75,25 M 75,25 Q 75,27 73,29 M 73,29 Q 71,29 70,28 M 70,28 Q 69,28 68,27 "/><path fill="none" stroke="black" d="M 71,17 Q 70,18 68,18 M 68,18 Q 64,22 67,19 M 67,19 Q 68,19 69,18 M 69,18 Q 70,18 71,17 "/><path fill="none" stroke="black" d="M 57,17 Q 58,17 59,18 "/><path fill="none" stroke="black" d="M 54,16 Q 54,16 55,16 "/><path fill="none" stroke="black" d="M 49,15 Q 49,15 51,15 "/><path fill="none" stroke="black" d="M 104,14 Q 105,15 105,16 M 105,16 Q 107,18 108,18 M 108,18 Q 110,20 109,21 M 109,21 Q 103,21 102,20 M 102,20 Q 101,20 100,21 M 100,21 Q 99,21 98,22 M 98,22 Q 96,20 94,20 M 94,20 Q 93,19 85,19 M 85,19 Q 83,21 83,22 M 83,22 Q 82,23 82,26 M 82,26 Q 84,28 88,28 M 88,28 Q 85,28 82,25 M 82,25 Q 82,24 83,23 M 83,23 Q 83,22 86,19 M 86,19 Q 93,19 94,20 M 94,20 Q 95,20 97,22 M 97,22 Q 96,23 95,23 M 95,23 Q 96,23 97,22 M 97,22 Q 99,24 98,25 M 98,25 Q 93,25 92,24 M 92,24 Q 87,24 86,23 M 86,23 Q 87,22 86,23 M 86,23 Q 86,24 92,24 M 92,24 Q 93,25 101,25 M 101,25 Q 100,25 99,24 M 99,24 Q 99,23 98,22 M 98,22 Q 99,21 100,21 M 100,21 Q 101,20 102,20 M 102,20 Q 103,21 109,21 M 109,21 Q 111,19 115,19 M 115,19 Q 109,19 108,18 M 108,18 Q 107,18 106,17 M 106,17 Q 106,16 105,15 "/><path fill="none" stroke="black" d="M 20,14 Q 21,13 22,14 "/><path fill="none" stroke="black" d=""/><path fill="none" stroke="black" d="M 33,12 Q 33,12 34,12 "/><path fill="none" stroke="black" d="M 30,11 Q 30,11 31,11 "/><path fill="none" stroke="black" d=""/><path fill="none" stroke="black" d="M 84,9 Q 83,10 84,10 M 84,10 Q 85,9 86,10 M 86,10 Q 87,10 88,11 M 88,11 Q 87,12 84,12 M 84,12 Q 87,12 88,11 M 88,11 Q 90,11 89,11 M 89,11 Q 88,10 87,10 "/><path fill="none" stroke="black" d="M 25,9 Q 26,9 27,10 "/><path fill="none" stroke="black" d=""/><path fill="none" stroke="black" d="M 107,7 Q 107,7 106,8 "/><path fill="none" stroke="black" d="M 83,7 Q 83,7 85,7 "/><path fill="none" stroke="black" d=""/><path fill="none" stroke="black" d=""/><path fill="none" stroke="black" d=""/><path fill="none" stroke="black" d=""/><path fill="none" stroke="black" d=""/><path fill="none" stroke="black" d="M 154,0 Q 154,1 152,3 M 152,3 Q 152,4 149,7 M 149,7 Q 149,8 146,11 M 146,11 Q 145,11 142,14 M 142,14 Q 141,14 139,16 M 139,16 Q 138,16 137,17 M 137,17 Q 136,17 135,18 M 135,18 Q 134,18 133,19 M 133,19 Q 132,19 131,20 M 131,20 Q 128,20 127,21 M 127,21 Q 123,21 122,22 M 122,22 Q 115,22 114,23 M 114,23 Q 109,23 108,24 M 108,24 Q 105,24 105,25 M 105,25 Q 104,26 105,27 M 105,27 Q 105,31 106,32 M 106,32 Q 106,35 107,36 M 107,36 Q 107,38 105,40 M 105,40 Q 104,39 104,38 M 104,38 Q 100,34 99,34 M 99,34 Q 98,33 97,33 M 97,33 Q 96,32 98,34 M 98,34 Q 99,34 107,42 M 107,42 Q 105,40 107,38 M 107,38 Q 109,40 110,40 M 110,40 Q 115,45 115,46 M 115,46 Q 116,47 116,48 M 116,48 Q 117,49 117,51 M 117,51 Q 118,52 118,55 M 118,55 Q 120,55 122,57 M 122,57 Q 122,58 121,59 M 121,59 Q 121,61 120,62 M 120,62 Q 120,63 122,63 M 122,63 Q 123,64 124,64 M 124,64 Q 126,66 124,68 M 124,68 Q 124,70 123,71 M 123,71 Q 126,71 127,70 M 127,70 Q 131,70 127,70 M 127,70 Q 126,71 125,71 M 125,71 Q 124,70 124,69 M 124,69 Q 126,67 126,65 M 126,65 Q 125,64 123,64 M 123,64 Q 122,63 121,63 M 121,63 Q 120,62 121,61 M 121,61 Q 121,59 122,58 M 122,58 Q 122,56 121,55 M 121,55 Q 119,55 118,54 M 118,54 Q 118,52 117,51 M 117,51 Q 117,49 116,48 M 116,48 Q 116,46 115,45 M 115,45 Q 115,44 111,40 M 111,40 Q 110,40 107,37 M 107,37 Q 107,36 106,35 M 106,35 Q 106,32 105,31 M 105,31 Q 105,27 104,26 M 104,26 Q 106,24 108,24 M 108,24 Q 109,23 114,23 M 114,23 Q 115,22 122,22 M 122,22 Q 123,21 127,21 M 127,21 Q 128,20 131,20 M 131,20 Q 132,19 134,19 M 134,19 Q 135,18 136,18 M 136,18 Q 137,17 138,17 M 138,17 Q 139,16 140,16 M 140,16 Q 142,14 143,14 M 143,14 Q 146,11 147,11 M 147,11 Q 149,9 149,8 M 149,8 Q 152,5 152,4 "/><path fill="none" stroke="black" d="M 150,0 Q 149,1 149,3 M 149,3 Q 146,6 149,3 "/><path fill="none" stroke="black" d="M 141,0 Q 134,7 133,7 M 133,7 Q 132,8 131,8 M 131,8 Q 130,9 128,9 M 128,9 Q 127,10 124,10 M 124,10 Q 123,11 118,11 M 118,11 Q 117,12 114,12 M 114,12 Q 113,13 108,13 M 108,13 Q 108,16 127,16 M 127,16 Q 128,15 131,15 M 131,15 Q 132,14 134,14 M 134,14 Q 135,13 136,13 M 136,13 Q 139,10 140,10 M 140,10 Q 143,7 143,6 M 143,6 Q 146,3 146,2 M 146,2 Q 147,1 147,0 M 147,0 Q 146,1 146,2 M 146,2 Q 143,5 143,6 M 143,6 Q 139,10 138,10 M 138,10 Q 135,13 134,13 M 134,13 Q 133,14 132,14 M 132,14 Q 131,15 128,15 M 128,15 Q 127,16 109,16 M 109,16 Q 108,15 108,14 M 108,14 Q 109,13 113,13 M 113,13 Q 114,12 117,12 M 117,12 Q 118,11 123,11 M 123,11 Q 124,10 127,10 M 127,10 Q 128,9 130,9 M 130,9 Q 131,8 133,8 M 133,8 Q 134,7 135,7 "/><path fill="none" stroke="black" d="M 137,0 Q 137,1 134,4 M 134,4 Q 133,4 131,6 M 131,6 Q 129,6 128,7 M 128,7 Q 126,7 125,8 M 125,8 Q 121,8 120,9 M 120,9 Q 116,9 115,10 M 115,10 Q 111,10 110,11 M 110,11 Q 107,11 106,12 M 106,12 Q 104,12 106,12 M 106,12 Q 107,11 110,11 M 110,11 Q 111,10 115,10 M 115,10 Q 116,9 120,9 M 120,9 Q 121,8 125,8 M 125,8 Q 126,7 128,7 M 128,7 Q 129,6 131,6 M 131,6 Q 133,4 134,4 "/><path fill="none" stroke="black" d="M 120,0 Q 118,2 117,2 M 117,2 Q 116,3 117,2 M 117,2 Q 118,2 119,1 "/><path fill="none" stroke="black" d="M 17,0 Q 17,1 18,2 M 18,2 Q 19,2 21,4 M 21,4 Q 22,4 23,5 M 23,5 Q 24,5 26,7 M 26,7 Q 28,7 29,8 M 29,8 Q 31,8 32,9 M 32,9 Q 34,9 35,10 M 35,10 Q 39,10 40,11 M 40,11 Q 45,11 46,12 M 46,12 Q 51,12 52,13 M 52,13 Q 55,13 56,14 M 56,14 Q 58,14 59,15 M 59,15 Q 61,15 62,16 M 62,16 Q 63,16 68,11 M 68,11 Q 69,11 70,10 M 70,10 Q 69,10 68,11 M 68,11 Q 67,11 62,16 M 62,16 Q 61,15 59,15 M 59,15 Q 58,14 56,14 M 56,14 Q 55,13 52,13 M 52,13 Q 51,12 46,12 M 46,12 Q 45,11 40,11 M 40,11 Q 39,10 35,10 M 35,10 Q 34,9 32,9 M 32,9 Q 31,8 29,8 M 29,8 Q 28,7 27,7 M 27,7 Q 25,5 24,5 M 24,5 Q 23,4 22,4 M 22,4 Q 20,2 19,2 "/><path fill="none" stroke="black" d="M 11,0 Q 10,1 10,10 M 10,10 Q 11,11 11,13 M 11,13 Q 12,14 12,15 M 12,15 Q 13,16 13,17 M 13,17 Q 14,18 14,19 M 14,19 Q 17,22 17,23 M 17,23 Q 19,25 20,25 M 20,25 Q 23,28 24,28 M 24,28 Q 26,30 27,30 M 27,30 Q 28,31 30,31 M 30,31 Q 31,32 33,32 M 33,32 Q 34,33 36,33 M 36,33 Q 37,34 41,34 M 41,34 Q 42,35 49,35 M 49,35 Q 50,36 60,36 M 60,36 Q 62,38 61,39 M 61,39 Q 61,40 60,41 M 60,41 Q 60,42 57,45 M 57,45 Q 56,45 54,47 M 54,47 Q 53,47 52,46 M 52,46 Q 46,46 45,45 M 45,45 Q 44,46 43,46 M 43,46 Q 41,48 41,50 M 41,50 Q 40,51 40,53 M 40,53 Q 39,54 39,56 M 39,56 Q 32,63 32,65 M 32,65 Q 31,66 31,69 M 31,69 Q 32,70 32,72 M 32,72 Q 33,73 33,74 M 33,74 Q 34,75 35,75 M 35,75 Q 37,77 38,77 M 38,77 Q 42,81 42,82 M 42,82 Q 43,83 43,84 M 43,84 Q 46,87 46,88 M 46,88 Q 47,89 48,89 M 48,89 Q 49,90 50,90 M 50,90 Q 51,91 53,91 M 53,91 Q 54,92 63,92 M 63,92 Q 64,93 64,94 M 64,94 Q 65,95 66,95 M 66,95 Q 69,98 70,98 M 70,98 Q 71,99 72,99 M 72,99 Q 73,100 75,100 M 75,100 Q 76,101 80,101 M 80,101 Q 81,102 86,102 M 86,102 Q 87,101 90,101 M 90,101 Q 91,100 92,100 M 92,100 Q 93,99 94,99 M 94,99 Q 94,98 95,97 M 95,97 Q 97,99 97,100 M 97,100 Q 98,101 98,104 M 98,104 Q 99,105 99,108 M 99,108 Q 100,109 100,111 M 100,111 Q 99,112 99,113 M 99,113 Q 98,114 97,114 M 97,114 Q 96,115 95,115 M 95,115 Q 91,119 91,120 M 91,120 Q 90,121 90,122 M 90,122 Q 89,123 89,125 M 89,125 Q 88,126 88,127 M 88,127 Q 87,128 87,129 M 87,129 Q 85,131 85,132 M 85,132 Q 83,134 82,134 M 82,134 Q 80,136 78,136 M 78,136 Q 77,137 69,137 M 69,137 Q 68,136 66,136 M 66,136 Q 65,135 63,135 M 63,135 Q 62,134 61,134 M 61,134 Q 60,133 59,133 M 59,133 Q 58,132 57,132 M 57,132 Q 56,131 54,131 M 54,131 Q 53,130 51,130 M 51,130 Q 49,128 49,127 M 49,127 Q 48,126 47,126 M 47,126 Q 45,124 45,123 M 45,123 Q 43,121 43,120 M 43,120 Q 42,119 42,118 M 42,118 Q 41,117 36,117 M 36,117 Q 36,118 35,119 M 35,119 Q 35,125 36,126 M 36,126 Q 36,128 35,129 M 35,129 Q 34,129 32,131 M 32,131 Q 31,130 19,130 M 19,130 Q 18,131 16,131 M 16,131 Q 15,132 14,132 M 14,132 Q 12,134 11,134 M 11,134 Q 8,137 8,138 M 8,138 Q 7,139 7,141 M 7,141 Q 6,142 6,146 M 6,146 Q 8,148 10,148 M 10,148 Q 11,149 14,149 M 14,149 Q 15,150 26,150 M 26,150 Q 27,149 29,149 M 29,149 Q 30,148 32,148 M 32,148 Q 33,149 42,149 M 42,149 Q 43,148 55,148 M 55,148 Q 56,149 57,149 M 57,149 Q 58,150 59,150 M 59,150 Q 60,151 61,151 M 61,151 Q 64,154 65,154 M 65,154 Q 69,158 70,158 M 70,158 Q 72,160 74,160 M 74,160 Q 75,161 81,161 M 81,161 Q 82,160 84,160 M 84,160 Q 85,159 86,159 M 86,159 Q 90,155 91,155 M 91,155 Q 95,151 96,151 M 96,151 Q 97,150 98,150 M 98,150 Q 100,148 101,148 M 101,148 Q 102,147 103,147 M 103,147 Q 109,153 109,154 M 109,154 Q 114,159 114,160 M 114,160 Q 115,161 115,162 M 115,162 Q 117,164 117,168 M 117,168 Q 114,171 113,171 M 113,171 Q 112,172 110,172 M 110,172 Q 109,173 107,173 M 107,173 Q 106,174 103,174 M 103,174 Q 102,175 96,175 M 96,175 Q 95,176 91,176 M 91,176 Q 90,177 87,177 M 87,177 Q 86,178 85,178 M 85,178 Q 84,179 83,179 M 83,179 Q 79,183 79,184 M 79,184 Q 78,185 78,187 M 78,187 Q 77,188 77,195 M 77,195 Q 78,196 78,198 M 78,198 Q 79,199 79,201 M 79,201 Q 80,202 80,203 M 80,203 Q 81,204 81,205 M 81,205 Q 83,207 83,208 M 83,208 Q 97,222 97,223 M 97,223 Q 99,225 97,227 M 97,227 Q 96,227 95,228 M 95,228 Q 94,228 93,229 M 93,229 Q 89,229 88,230 M 88,230 Q 78,230 77,231 M 77,231 Q 76,231 75,232 M 75,232 Q 70,232 69,231 M 69,231 Q 68,231 67,232 M 67,232 Q 64,232 63,233 M 63,233 Q 62,233 59,236 M 59,236 Q 58,236 55,239 M 55,239 Q 55,240 53,242 M 53,242 Q 53,247 54,248 M 54,248 Q 54,249 55,249 M 55,249 Q 56,250 58,250 M 58,250 Q 59,251 62,251 M 62,251 Q 63,252 71,252 M 71,252 Q 72,251 75,251 M 75,251 Q 76,250 78,250 M 78,250 Q 80,248 80,246 M 80,246 Q 82,244 83,244 M 83,244 Q 84,243 85,243 M 85,243 Q 86,242 87,242 M 87,242 Q 88,241 89,241 M 89,241 Q 90,240 91,240 M 91,240 Q 92,239 95,239 M 95,239 Q 96,238 98,238 M 98,238 Q 99,237 101,237 M 101,237 Q 102,236 105,236 M 105,236 Q 106,235 108,235 M 108,235 Q 109,234 111,234 M 111,234 Q 112,233 114,233 M 114,233 Q 115,232 116,232 M 116,232 Q 118,230 118,229 M 118,229 Q 119,228 119,221 M 119,221 Q 116,218 115,218 M 115,218 Q 113,216 112,216 M 112,216 Q 111,215 110,215 M 110,215 Q 105,210 105,209 M 105,209 Q 107,207 108,207 M 108,207 Q 110,205 111,205 M 111,205 Q 112,204 116,204 M 116,204 Q 121,209 122,209 M 122,209 Q 123,210 124,210 M 124,210 Q 125,211 126,211 M 126,211 Q 127,212 129,212 M 129,212 Q 130,213 132,213 M 132,213 Q 133,214 138,214 M 138,214 Q 139,215 147,215 M 147,215 Q 148,214 152,214 M 152,214 Q 153,213 155,213 M 155,213 Q 156,212 158,212 M 158,212 Q 159,211 161,211 M 161,211 Q 163,209 164,209 M 164,209 Q 166,207 167,207 M 167,207 Q 168,206 169,206 M 169,206 Q 176,199 177,199 M 177,199 Q 178,200 179,200 M 179,200 Q 180,201 181,201 M 181,201 Q 182,202 183,202 M 183,202 Q 184,203 185,203 M 185,203 Q 187,205 187,207 M 187,207 Q 182,212 181,212 M 181,212 Q 179,214 178,214 M 178,214 Q 176,216 176,217 M 176,217 Q 175,218 175,224 M 175,224 Q 176,225 176,226 M 176,226 Q 179,229 180,229 M 180,229 Q 181,230 183,230 M 183,230 Q 184,231 186,231 M 186,231 Q 187,232 190,232 M 190,232 Q 191,233 194,233 M 194,233 Q 195,234 197,234 M 197,234 Q 198,235 199,235 M 199,235 Q 200,236 201,236 M 201,236 Q 203,238 204,238 M 204,238 Q 206,240 206,241 M 206,241 Q 207,242 207,243 M 207,243 Q 208,244 208,245 M 208,245 Q 209,245 211,247 M 211,247 Q 213,247 214,248 M 214,248 Q 217,248 218,249 M 218,249 Q 227,249 228,248 M 228,248 Q 231,248 232,247 M 232,247 Q 234,247 235,246 M 235,246 Q 235,238 234,237 M 234,237 Q 234,236 229,231 M 229,231 Q 228,231 226,229 M 226,229 Q 223,229 222,228 M 222,228 Q 220,228 219,229 M 219,229 Q 216,229 215,228 M 215,228 Q 214,228 213,227 M 213,227 Q 209,227 208,226 M 208,226 Q 203,226 202,225 M 202,225 Q 200,225 199,224 M 199,224 Q 198,224 197,223 M 197,223 Q 196,223 194,221 M 194,221 Q 194,219 197,216 M 197,216 Q 198,216 199,215 M 199,215 Q 200,215 201,214 M 201,214 Q 202,214 203,213 M 203,213 Q 204,213 205,212 M 205,212 Q 206,212 207,211 M 207,211 Q 208,211 209,210 M 209,210 Q 210,210 211,209 M 211,209 Q 212,209 220,201 M 220,201 Q 220,200 222,198 M 222,198 Q 222,195 223,194 M 223,194 Q 223,190 224,189 M 224,189 Q 224,188 223,187 M 223,187 Q 223,183 222,182 M 222,182 Q 222,180 219,177 M 219,177 Q 219,176 218,176 M 218,176 Q 216,174 215,174 M 215,174 Q 214,173 213,173 M 213,173 Q 212,172 211,172 M 211,172 Q 210,171 208,171 M 208,171 Q 207,170 206,170 M 206,170 Q 207,170 208,171 M 208,171 Q 209,171 210,172 M 210,172 Q 211,172 212,173 M 212,173 Q 213,173 214,174 M 214,174 Q 215,174 217,176 M 217,176 Q 218,176 219,177 M 219,177 Q 219,178 222,181 M 222,181 Q 222,182 223,183 M 223,183 Q 223,187 224,188 M 224,188 Q 224,189 223,190 M 223,190 Q 223,194 222,195 M 222,195 Q 222,197 220,199 M 220,199 Q 220,200 211,209 M 211,209 Q 210,209 209,210 M 209,210 Q 208,210 207,211 M 207,211 Q 206,211 205,212 M 205,212 Q 204,212 203,213 M 203,213 Q 202,213 201,214 M 201,214 Q 200,214 199,215 M 199,215 Q 198,215 197,216 M 197,216 Q 196,216 194,218 M 194,218 Q 194,222 195,223 M 195,223 Q 196,223 197,224 M 197,224 Q 199,224 200,225 M 200,225 Q 202,225 203,226 M 203,226 Q 208,226 209,227 M 209,227 Q 213,227 214,228 M 214,228 Q 215,228 216,229 M 216,229 Q 219,229 220,228 M 220,228 Q 222,228 223,229 M 223,229 Q 225,229 227,231 M 227,231 Q 228,231 234,237 M 234,237 Q 234,238 235,239 M 235,239 Q 235,245 233,247 M 233,247 Q 232,247 231,248 M 231,248 Q 228,248 227,249 M 227,249 Q 218,249 217,248 M 217,248 Q 214,248 213,247 M 213,247 Q 212,247 210,245 M 210,245 Q 209,245 208,244 M 208,244 Q 208,243 207,242 M 207,242 Q 207,241 206,240 M 206,240 Q 206,239 208,237 M 208,237 Q 208,236 212,232 M 212,232 Q 212,230 211,230 M 211,230 Q 212,231 208,235 M 208,235 Q 208,236 207,237 M 207,237 Q 207,238 206,239 M 206,239 Q 205,238 204,238 M 204,238 Q 202,236 200,236 M 200,236 Q 199,235 198,235 M 198,235 Q 197,234 195,234 M 195,234 Q 194,233 191,233 M 191,233 Q 190,232 187,232 M 187,232 Q 186,231 184,231 M 184,231 Q 183,230 182,230 M 182,230 Q 181,229 180,229 M 180,229 Q 175,224 175,219 M 175,219 Q 176,218 176,217 M 176,217 Q 179,214 180,214 M 180,214 Q 182,212 183,212 M 183,212 Q 186,209 186,208 M 186,208 Q 187,207 187,204 M 187,204 Q 186,203 185,203 M 185,203 Q 184,202 183,202 M 183,202 Q 182,201 181,201 M 181,201 Q 180,200 178,200 M 178,200 Q 177,199 176,199 M 176,199 Q 175,200 174,200 M 174,200 Q 168,206 167,206 M 167,206 Q 166,207 165,207 M 165,207 Q 163,209 162,209 M 162,209 Q 160,211 159,211 M 159,211 Q 158,212 156,212 M 156,212 Q 155,213 153,213 M 153,213 Q 152,214 148,214 M 148,214 Q 147,215 139,215 M 139,215 Q 138,214 133,214 M 133,214 Q 132,213 130,213 M 130,213 Q 129,212 127,212 M 127,212 Q 125,210 124,210 M 124,210 Q 123,209 122,209 M 122,209 Q 117,204 112,204 M 112,204 Q 111,205 109,205 M 109,205 Q 107,207 106,207 M 106,207 Q 105,208 105,211 M 105,211 Q 109,215 110,215 M 110,215 Q 111,216 112,216 M 112,216 Q 114,218 115,218 M 115,218 Q 119,222 119,227 M 119,227 Q 118,228 118,229 M 118,229 Q 115,232 114,232 M 114,232 Q 113,233 112,233 M 112,233 Q 111,234 109,234 M 109,234 Q 108,235 106,235 M 106,235 Q 105,236 102,236 M 102,236 Q 101,237 99,237 M 99,237 Q 98,238 96,238 M 96,238 Q 95,239 92,239 M 92,239 Q 91,240 90,240 M 90,240 Q 89,241 88,241 M 88,241 Q 87,242 85,242 M 85,242 Q 84,243 83,243 M 83,243 Q 82,244 81,244 M 81,244 Q 80,245 80,247 M 80,247 Q 77,250 76,250 M 76,250 Q 75,251 72,251 M 72,251 Q 71,252 63,252 M 63,252 Q 62,251 59,251 M 59,251 Q 58,250 57,250 M 57,250 Q 56,249 55,249 M 55,249 Q 54,248 54,247 M 54,247 Q 53,246 53,243 M 53,243 Q 55,241 55,240 M 55,240 Q 59,236 60,236 M 60,236 Q 63,233 64,233 M 64,233 Q 65,232 67,232 M 67,232 Q 68,231 69,231 M 69,231 Q 70,232 75,232 M 75,232 Q 76,233 76,234 M 76,234 Q 78,236 89,236 M 89,236 Q 90,235 93,235 M 93,235 Q 94,234 96,234 M 96,234 Q 97,233 100,233 M 100,233 Q 101,232 102,232 M 102,232 Q 103,231 105,231 M 105,231 Q 106,230 107,230 M 107,230 Q 111,226 111,221 M 111,221 Q 107,217 106,217 M 106,217 Q 102,213 102,212 M 102,212 Q 101,211 101,208 M 101,208 Q 103,206 103,205 M 103,205 Q 104,204 104,203 M 104,203 Q 109,198 110,198 M 110,198 Q 112,196 111,195 M 111,195 Q 111,182 112,181 M 112,181 Q 112,179 113,178 M 113,178 Q 113,176 114,175 M 114,175 Q 114,174 113,174 M 113,174 Q 114,175 113,176 M 113,176 Q 113,178 112,179 M 112,179 Q 112,181 111,182 M 111,182 Q 111,196 109,198 M 109,198 Q 108,198 104,202 M 104,202 Q 104,203 103,204 M 103,204 Q 103,205 101,207 M 101,207 Q 101,212 102,213 M 102,213 Q 102,214 105,217 M 105,217 Q 106,217 111,222 M 111,222 Q 111,225 106,230 M 106,230 Q 105,230 104,231 M 104,231 Q 103,231 102,232 M 102,232 Q 101,232 100,233 M 100,233 Q 97,233 96,234 M 96,234 Q 94,234 93,235 M 93,235 Q 90,235 89,236 M 89,236 Q 79,236 75,232 M 75,232 Q 76,231 77,231 M 77,231 Q 78,230 88,230 M 88,230 Q 89,229 93,229 M 93,229 Q 94,228 96,228 M 96,228 Q 97,227 98,227 M 98,227 Q 99,226 99,225 M 99,225 Q 98,224 98,223 M 98,223 Q 97,222 97,221 M 97,221 Q 83,207 83,206 M 83,206 Q 81,204 81,203 M 81,203 Q 79,201 79,199 M 79,199 Q 78,198 78,196 M 78,196 Q 77,195 77,188 M 77,188 Q 78,187 78,186 M 78,186 Q 79,185 79,184 M 79,184 Q 84,179 85,179 M 85,179 Q 86,178 87,178 M 87,178 Q 88,177 90,177 M 90,177 Q 91,176 95,176 M 95,176 Q 96,175 102,175 M 102,175 Q 103,174 106,174 M 106,174 Q 107,173 109,173 M 109,173 Q 110,172 113,172 M 113,172 Q 114,171 115,171 M 115,171 Q 118,168 117,167 M 117,167 Q 117,164 116,163 M 116,163 Q 116,162 115,161 M 115,161 Q 115,160 114,159 M 114,159 Q 114,158 109,153 M 109,153 Q 109,152 104,147 M 104,147 Q 101,147 100,148 M 100,148 Q 99,148 97,150 M 97,150 Q 96,150 95,151 M 95,151 Q 94,151 90,155 M 90,155 Q 89,155 85,159 M 85,159 Q 84,159 83,160 M 83,160 Q 82,160 81,161 M 81,161 Q 75,161 74,160 M 74,160 Q 73,160 71,158 M 71,158 Q 70,158 66,154 M 66,154 Q 65,154 62,151 M 62,151 Q 61,151 60,150 M 60,150 Q 59,150 58,149 M 58,149 Q 56,149 55,148 M 55,148 Q 43,148 42,149 M 42,149 Q 33,149 32,148 M 32,148 Q 30,148 29,149 M 29,149 Q 27,149 26,150 M 26,150 Q 15,150 14,149 M 14,149 Q 11,149 10,148 M 10,148 Q 9,148 6,145 M 6,145 Q 6,142 7,141 M 7,141 Q 7,140 8,139 M 8,139 Q 8,138 12,134 M 12,134 Q 13,134 15,132 M 15,132 Q 16,132 17,131 M 17,131 Q 18,131 19,130 M 19,130 Q 31,130 32,131 M 32,131 Q 33,130 34,130 M 34,130 Q 36,128 38,130 M 38,130 Q 36,132 35,132 M 35,132 Q 33,134 33,136 M 33,136 Q 32,137 32,146 M 32,146 Q 32,144 33,143 M 33,143 Q 34,143 35,144 M 35,144 Q 36,143 37,144 M 37,144 Q 37,145 36,146 M 36,146 Q 34,146 40,146 M 40,146 Q 39,145 39,144 M 39,144 Q 38,143 37,144 M 37,144 Q 36,143 33,143 M 33,143 Q 32,142 32,137 M 32,137 Q 33,136 33,134 M 33,134 Q 34,133 35,133 M 35,133 Q 39,129 40,129 M 40,129 Q 41,128 45,128 M 45,128 Q 46,129 47,129 M 47,129 Q 48,130 44,134 M 44,134 Q 44,135 43,136 M 43,136 Q 43,137 41,139 M 41,139 Q 39,137 38,137 M 38,137 Q 36,135 36,136 M 36,136 Q 37,137 39,137 M 39,137 Q 41,139 41,140 M 41,140 Q 40,141 38,141 M 38,141 Q 37,140 34,140 M 34,140 Q 37,140 38,141 M 38,141 Q 41,141 43,143 M 43,143 Q 43,145 43,142 M 43,142 Q 42,142 41,141 M 41,141 Q 41,140 43,138 M 43,138 Q 43,137 44,136 M 44,136 Q 44,135 48,131 M 48,131 Q 48,130 49,129 M 49,129 Q 50,130 53,130 M 53,130 Q 54,131 55,131 M 55,131 Q 56,132 57,132 M 57,132 Q 58,133 60,133 M 60,133 Q 61,134 62,134 M 62,134 Q 63,135 65,135 M 65,135 Q 66,136 68,136 M 68,136 Q 69,137 77,137 M 77,137 Q 78,136 81,136 M 81,136 Q 83,134 84,134 M 84,134 Q 85,133 85,132 M 85,132 Q 87,130 87,128 M 87,128 Q 88,127 88,126 M 88,126 Q 89,125 89,124 M 89,124 Q 90,123 90,122 M 90,122 Q 91,121 91,120 M 91,120 Q 96,115 97,115 M 97,115 Q 98,114 99,114 M 99,114 Q 100,113 99,112 M 99,112 Q 100,111 100,110 M 100,110 Q 101,109 102,110 M 102,110 Q 102,113 102,109 M 102,109 Q 103,108 104,108 M 104,108 Q 105,107 106,107 M 106,107 Q 107,106 111,106 M 111,106 Q 112,107 115,107 M 115,107 Q 117,109 118,109 M 118,109 Q 119,110 120,110 M 120,110 Q 125,115 125,116 M 125,116 Q 127,118 127,119 M 127,119 Q 128,120 128,121 M 128,121 Q 129,122 129,124 M 129,124 Q 130,125 130,134 M 130,134 Q 131,135 131,142 M 131,142 Q 132,143 132,146 M 132,146 Q 133,147 133,148 M 133,148 Q 142,157 142,158 M 142,158 Q 151,167 151,168 M 151,168 Q 154,171 154,172 M 154,172 Q 155,173 155,175 M 155,175 Q 156,176 156,178 M 156,178 Q 157,179 157,185 M 157,185 Q 156,186 156,190 M 156,190 Q 155,191 155,192 M 155,192 Q 153,194 153,195 M 153,195 Q 149,199 148,199 M 148,199 Q 147,200 146,200 M 146,200 Q 145,201 143,201 M 143,201 Q 142,202 141,201 M 141,201 Q 135,201 134,200 M 134,200 Q 133,200 132,199 M 132,199 Q 131,199 130,198 M 130,198 Q 129,198 123,192 M 123,192 Q 123,191 122,190 M 122,190 Q 122,189 121,188 M 121,188 Q 121,173 121,188 M 121,188 Q 122,189 122,191 M 122,191 Q 123,192 123,193 M 123,193 Q 128,198 129,198 M 129,198 Q 130,199 131,199 M 131,199 Q 132,200 134,200 M 134,200 Q 135,201 141,201 M 141,201 Q 142,202 143,201 M 143,201 Q 146,201 147,200 M 147,200 Q 148,200 149,199 M 149,199 Q 150,199 153,196 M 153,196 Q 153,195 155,193 M 155,193 Q 155,191 156,190 M 156,190 Q 156,186 157,185 M 157,185 Q 157,179 156,178 M 156,178 Q 156,176 155,175 M 155,175 Q 155,173 154,172 M 154,172 Q 154,170 151,167 M 151,167 Q 151,166 142,157 M 142,157 Q 142,156 133,147 M 133,147 Q 133,146 132,145 M 132,145 Q 132,143 131,142 M 131,142 Q 131,135 130,134 M 130,134 Q 130,125 129,124 M 129,124 Q 129,122 128,121 M 128,121 Q 128,119 127,118 M 127,118 Q 127,117 125,115 M 125,115 Q 125,114 121,110 M 121,110 Q 120,110 119,109 M 119,109 Q 118,109 117,108 M 117,108 Q 116,108 115,107 M 115,107 Q 112,107 111,106 M 111,106 Q 107,106 106,107 M 106,107 Q 104,107 103,108 M 103,108 Q 102,108 101,109 M 101,109 Q 100,109 99,108 M 99,108 Q 99,105 98,104 M 98,104 Q 98,101 97,100 M 97,100 Q 97,98 96,97 M 96,97 Q 95,97 93,99 M 93,99 Q 92,99 90,101 M 90,101 Q 87,101 86,102 M 86,102 Q 81,102 80,101 M 80,101 Q 76,101 75,100 M 75,100 Q 73,100 71,98 M 71,98 Q 70,98 67,95 M 67,95 Q 66,95 64,93 M 64,93 Q 64,92 65,91 M 65,91 Q 66,92 67,91 M 67,91 Q 68,91 71,94 M 71,94 Q 72,94 74,96 M 74,96 Q 75,96 76,97 M 76,97 Q 78,97 79,98 M 79,98 Q 84,98 85,97 M 85,97 Q 88,97 93,92 M 93,92 Q 93,91 95,89 M 95,89 Q 95,86 96,85 M 96,85 Q 96,82 97,81 M 97,81 Q 97,58 96,57 M 96,57 Q 97,56 98,56 M 98,56 Q 99,57 99,59 M 99,59 Q 99,57 97,55 M 97,55 Q 95,55 94,54 M 94,54 Q 93,55 93,58 M 93,58 Q 94,59 94,63 M 94,63 Q 92,65 92,66 M 92,66 Q 72,86 71,86 M 71,86 Q 70,87 69,87 M 69,87 Q 68,88 68,90 M 68,90 Q 67,91 65,91 M 65,91 Q 64,92 54,92 M 54,92 Q 53,91 51,91 M 51,91 Q 49,89 48,89 M 48,89 Q 46,87 46,86 M 46,86 Q 43,83 43,82 M 43,82 Q 42,81 42,80 M 42,80 Q 39,77 38,77 M 38,77 Q 36,75 35,75 M 35,75 Q 33,73 33,72 M 33,72 Q 32,71 32,70 M 32,70 Q 31,69 31,66 M 31,66 Q 32,65 32,64 M 32,64 Q 39,57 39,54 M 39,54 Q 40,53 40,51 M 40,51 Q 41,50 41,49 M 41,49 Q 45,45 46,46 M 46,46 Q 52,46 53,47 M 53,47 Q 54,47 55,46 M 55,46 Q 56,46 57,45 M 57,45 Q 58,45 60,43 M 60,43 Q 60,41 65,36 M 65,36 Q 66,37 66,38 M 66,38 Q 67,38 65,36 M 65,36 Q 66,35 67,35 M 67,35 Q 66,34 66,33 M 66,33 Q 67,32 67,31 M 67,31 Q 68,30 67,29 M 67,29 Q 67,28 68,27 M 68,27 Q 69,28 70,28 M 70,28 Q 71,29 73,29 M 73,29 Q 76,32 76,35 M 76,35 Q 75,36 74,36 M 74,36 Q 70,40 69,40 M 69,40 Q 68,41 63,41 M 63,41 Q 68,41 69,40 M 69,40 Q 71,40 76,35 M 76,35 Q 76,32 75,31 M 75,31 Q 75,30 74,30 M 74,30 Q 73,29 74,28 M 74,28 Q 75,28 75,24 M 75,24 Q 70,24 67,27 M 67,27 Q 67,29 68,30 M 68,30 Q 67,31 65,31 M 65,31 Q 64,30 65,29 M 65,29 Q 64,30 61,30 M 61,30 Q 60,29 59,29 M 59,29 Q 58,28 57,28 M 57,28 Q 56,27 41,27 M 41,27 Q 40,26 39,26 M 39,26 Q 38,25 37,25 M 37,25 Q 36,24 33,24 M 33,24 Q 32,23 30,23 M 30,23 Q 29,22 28,22 M 28,22 Q 27,21 26,21 M 26,21 Q 21,16 21,15 M 21,15 Q 22,14 25,17 M 25,17 Q 26,17 27,18 M 27,18 Q 29,18 30,19 M 30,19 Q 32,19 33,20 M 33,20 Q 37,20 38,21 M 38,21 Q 48,21 49,22 M 49,22 Q 56,22 57,23 M 57,23 Q 59,23 61,25 M 61,25 Q 62,25 64,27 M 64,27 Q 65,27 64,26 M 64,26 Q 66,24 67,24 M 67,24 Q 70,21 71,21 M 71,21 Q 72,20 73,20 M 73,20 Q 74,19 78,19 M 78,19 Q 79,18 81,18 M 81,18 Q 82,17 83,17 M 83,17 Q 84,16 93,16 M 93,16 Q 94,15 95,15 M 95,15 Q 96,14 97,14 M 97,14 Q 96,14 95,13 M 95,13 Q 98,10 99,10 M 99,10 Q 103,6 104,6 M 104,6 Q 105,5 106,5 M 106,5 Q 108,3 110,3 M 110,3 Q 111,2 112,2 M 112,2 Q 113,1 114,1 M 114,1 Q 115,0 116,0 M 116,0 Q 114,0 113,1 M 113,1 Q 112,1 111,2 M 111,2 Q 110,2 109,3 M 109,3 Q 107,3 105,5 M 105,5 Q 104,5 103,6 M 103,6 Q 102,6 98,10 M 98,10 Q 97,10 97,11 M 97,11 Q 96,12 93,9 M 93,9 Q 93,8 89,4 M 89,4 Q 89,3 87,1 M 87,1 Q 84,1 82,3 M 82,3 Q 78,3 77,2 M 77,2 Q 70,2 69,3 M 69,3 Q 67,3 64,6 M 64,6 Q 64,8 69,8 M 69,8 Q 65,8 64,7 M 64,7 Q 68,3 69,3 M 69,3 Q 70,2 77,2 M 77,2 Q 78,3 83,3 M 83,3 Q 85,1 86,1 M 86,1 Q 89,4 89,5 M 89,5 Q 93,9 93,10 M 93,10 Q 95,12 95,14 M 95,14 Q 94,15 93,15 M 93,15 Q 92,16 84,16 M 84,16 Q 83,17 81,17 M 81,17 Q 80,18 79,18 M 79,18 Q 78,19 74,19 M 74,19 Q 73,20 71,20 M 71,20 Q 70,21 69,21 M 69,21 Q 66,24 65,24 M 65,24 Q 65,25 64,26 M 64,26 Q 63,25 62,25 M 62,25 Q 60,23 57,23 M 57,23 Q 56,22 49,22 M 49,22 Q 48,21 38,21 M 38,21 Q 37,20 33,20 M 33,20 Q 32,19 30,19 M 30,19 Q 29,18 28,18 M 28,18 Q 27,17 26,17 M 26,17 Q 25,16 24,16 M 24,16 Q 21,13 22,12 M 22,12 Q 23,12 25,14 M 25,14 Q 26,14 27,15 M 27,15 Q 28,15 29,16 M 29,16 Q 30,16 31,17 M 31,17 Q 34,17 35,18 M 35,18 Q 41,18 42,19 M 42,19 Q 53,19 54,20 M 54,20 Q 57,20 58,21 M 58,21 Q 60,21 61,20 M 61,20 Q 61,19 62,18 M 62,18 Q 59,21 58,21 M 58,21 Q 57,20 54,20 M 54,20 Q 53,19 42,19 M 42,19 Q 41,18 35,18 M 35,18 Q 34,17 31,17 M 31,17 Q 30,16 29,16 M 29,16 Q 28,15 27,15 M 27,15 Q 25,13 24,13 M 24,13 Q 21,10 20,10 M 20,10 Q 18,8 18,7 M 18,7 Q 17,8 16,7 M 16,7 Q 16,10 17,11 M 17,11 Q 17,13 18,14 M 18,14 Q 18,16 20,18 M 20,18 Q 20,19 28,27 M 28,27 Q 29,27 30,28 M 30,28 Q 31,28 32,29 M 32,29 Q 34,29 35,30 M 35,30 Q 37,30 38,31 M 38,31 Q 40,31 38,31 M 38,31 Q 37,30 35,30 M 35,30 Q 34,29 32,29 M 32,29 Q 30,27 29,27 M 29,27 Q 28,26 29,25 M 29,25 Q 28,26 25,23 M 25,23 Q 24,23 21,20 M 21,20 Q 21,19 19,17 M 19,17 Q 19,16 18,15 M 18,15 Q 18,13 17,12 M 17,12 Q 17,11 16,10 M 16,10 Q 16,9 17,8 M 17,8 Q 19,10 20,10 M 20,10 Q 22,12 21,13 M 21,13 Q 20,13 20,14 M 20,14 Q 21,15 21,16 M 21,16 Q 23,18 23,19 M 23,19 Q 25,21 26,21 M 26,21 Q 27,22 28,22 M 28,22 Q 29,23 32,23 M 32,23 Q 33,24 36,24 M 36,24 Q 38,26 40,26 M 40,26 Q 41,27 56,27 M 56,27 Q 57,28 58,28 M 58,28 Q 59,29 60,29 M 60,29 Q 61,30 64,30 M 64,30 Q 65,31 66,31 M 66,31 Q 67,32 66,33 M 66,33 Q 64,33 63,34 M 63,34 Q 61,32 42,32 M 42,32 Q 60,32 61,33 M 61,33 Q 62,33 63,34 M 63,34 Q 61,36 50,36 M 50,36 Q 49,35 42,35 M 42,35 Q 41,34 37,34 M 37,34 Q 36,33 34,33 M 34,33 Q 33,32 31,32 M 31,32 Q 30,31 29,31 M 29,31 Q 28,30 27,30 M 27,30 Q 25,28 24,28 M 24,28 Q 21,25 20,25 M 20,25 Q 17,22 17,21 M 17,21 Q 14,18 14,17 M 14,17 Q 13,16 13,15 M 13,15 Q 11,13 11,11 M 11,11 Q 10,10 10,1 "/></svg>