<?xml version="1.0" encoding="utf-8"?>
<svg baseProfile="full" height="100%" version="1.1" width="100%" xmlns="http://www.w3.org/2000/svg"
    xmlns:ev="http://www.w3.org/2001/xml-events" xmlns:xlink="http://www.w3.org/1999/xlink">
    <defs />
    <polygon fill="rgb(167,150,191)"
        points="117,227 137,227 139,205 149,204 162,214 179,220 187,220 192,215 195,209 195,204 179,190 186,179 186,175 199,174 205,168 206,161 202,162 196,167 189,167 188,164 193,153 187,152 184,141 209,108 214,110 224,105 227,90 227,46 223,35 221,35 217,30 207,30 197,33 181,47 176,44 153,40 133,39 120,41 119,39 112,37 100,40 91,49 88,55 88,68 90,72 87,82 87,93 78,93 71,90 66,84 63,76 59,79 52,79 49,81 54,98 63,108 72,113 86,115 57,116 53,125 54,139 56,141 68,144 91,144 90,154 92,170 98,183 104,190 109,212 114,224"
        stroke="black" />
    <polygon fill="rgb(254,254,253)"
        points="214,105 212,104 216,94 212,91 217,77 219,66 219,49 217,44 211,39 201,40 191,46 174,63 172,63 176,56 192,41 208,34 218,36 223,49 223,81 221,99 218,104"
        stroke="black" />
    <polygon fill="rgb(229,229,233)" points="92,59 94,51 101,44 106,42 115,42 113,45 103,47"
        stroke="black" />
    <polygon fill="rgb(244,245,247)"
        points="173,103 168,98 169,72 193,48 201,43 211,42 216,48 216,67 210,87 200,80 177,103"
        stroke="black" />
    <polygon fill="rgb(150,137,179)"
        points="178,49 167,66 165,82 165,99 174,107 162,118 152,122 141,124 116,124 91,117 93,116 92,113 73,111 70,107 63,104 54,88 56,83 61,82 65,88 74,95 90,95 99,87 103,65 107,56 115,47 121,44 153,44 165,47 175,47"
        stroke="black" />
    <polygon fill="rgb(132,133,167)" points="90,90 95,60 102,51 110,48 102,60 97,85 94,89"
        stroke="black" />
    <polygon fill="rgb(112,115,184)" points="91,61 92,59" stroke="black" />
    <polygon fill="rgb(127,130,176)"
        points="149,80 143,73 136,73 128,79 128,81 130,81 136,76 143,76 146,81" stroke="black" />
    <polygon fill="rgb(100,102,143)"
        points="120,80 116,75 106,75 102,79 102,81 104,81 106,78 112,77 118,81" stroke="black" />
    <polygon fill="rgb(150,107,170)"
        points="213,95 211,101 181,140 184,151 151,149 140,146 130,140 116,127 140,127 161,122 171,114 201,83"
        stroke="black" />
    <polygon fill="rgb(119,72,140)"
        points="135,99 128,108 120,107 117,102 114,104 120,110 128,111 134,105" stroke="black" />
    <polygon fill="rgb(107,111,176)"
        points="91,142 85,142 84,140 69,140 60,137 60,135 56,135 57,121 60,118 64,118 66,120 61,132 64,134 67,132 69,127 67,123 71,118 85,118 94,120 95,122"
        stroke="black" />
    <polygon fill="rgb(160,157,191)"
        points="186,217 184,217 184,214 175,215 164,211 149,200 144,202 132,202 126,200 125,203 136,205 136,211 132,218 133,221 135,221 135,224 123,225 125,222 118,222 116,220 107,189 99,178 95,165 94,138 96,125 98,122 116,155 132,171 152,182 175,187 176,191 189,203 189,208 192,208"
        stroke="black" />
    <polygon fill="rgb(144,68,151)"
        points="177,184 161,182 145,176 135,170 120,156 101,124 104,123 112,126 121,136 123,136 123,138 142,150 185,154 186,163"
        stroke="black" />
    <polygon fill="rgb(105,109,172)" points="189,171 187,171 188,168" stroke="black" />
    <polygon fill="rgb(255,254,254)" points="128,217 126,218" stroke="black" />
</svg>