<?xml version="1.0" encoding="utf-8" ?>
<svg baseProfile="full" height="100%" version="1.1" width="100%" xmlns="http://www.w3.org/2000/svg" xmlns:ev="http://www.w3.org/2001/xml-events" xmlns:xlink="http://www.w3.org/1999/xlink"><defs /><polygon fill="rgb(229,183,146)" points="222,206 223,194 207,163 203,148 210,126 207,96 199,70 192,59 186,58 183,61 183,70 191,95 191,109 186,109 169,102 126,102 99,97 75,84 60,70 53,60 50,59 48,61 48,71 40,77 28,95 32,103 44,108 42,105 37,105 37,103 39,104 38,102 35,103 34,94 32,95 33,97 29,96 39,81 50,72 49,63 51,61 72,83 82,90 103,99 110,110 109,123 106,129 93,139 107,144 119,144 132,139 139,131 141,117 135,105 138,103 164,103 180,107 188,112 193,111 194,99 185,69 185,61 190,60 197,71 204,93 207,110 207,131 203,140 191,155 170,201 159,206 142,207 139,206 142,202 154,199 159,192 159,182 154,175 155,153 152,156 152,176 116,170 91,158 91,163 99,173 109,192 109,197 104,198 97,192 79,164 55,138 50,129 45,109 48,127 62,153 62,159 56,179 46,191 34,198 37,202 47,203 57,199 82,174 100,198 109,200 111,198 110,188 94,164 95,162 117,172 155,178 158,187 155,196 140,201 137,204 139,208 156,208 170,203 184,177 208,195 209,201 202,201 199,204 202,210 215,211" stroke="black" /><polygon fill="rgb(254,253,254)" points="39,84 43,85 44,80" stroke="black" /><polygon fill="rgb(253,253,254)" points="34,100" stroke="black" /><polygon fill="rgb(249,150,31)" points="107,100" stroke="black" /><polygon fill="rgb(205,103,40)" points="131,137 117,142 97,139 108,130 112,122 113,114 108,101 112,102 119,112 118,125 111,138 117,133 122,120 121,109 116,103 122,103 128,111 128,122 119,137 126,132 131,121 131,112 126,104 129,103 135,108 138,115 138,126" stroke="black" /><polygon fill="rgb(233,200,164)" points="214,209 201,207 202,203 211,202 211,196 185,175 192,158 201,146 206,166 221,195 220,205" stroke="black" /><polygon fill="rgb(254,254,254)" points="61,150 62,148" stroke="black" /><polygon fill="rgb(254,254,253)" points="63,150" stroke="black" /><polygon fill="rgb(243,236,233)" points="36,199 48,192 56,183 61,171 64,151 81,172 57,197 47,201" stroke="black" /></svg>