<?xml version="1.0" encoding="utf-8"?>
<svg baseProfile="tiny" height="100%" version="1.2" width="100%" xmlns="http://www.w3.org/2000/svg"
    xmlns:ev="http://www.w3.org/2001/xml-events" xmlns:xlink="http://www.w3.org/1999/xlink">
    <defs />
    <polygon fill="rgb(176,172,170)"
        points="202,239 207,234 212,222 211,205 204,194 203,188 205,163 217,156 226,145 233,108 252,72 252,60 243,52 237,53 230,60 226,76 206,114 205,127 211,139 211,145 204,149 199,129 183,114 174,102 187,90 190,83 188,68 181,58 216,48 220,42 219,32 211,28 198,26 173,35 186,26 190,19 190,12 185,9 176,8 158,19 138,38 127,38 113,42 110,15 106,2 102,0 96,5 88,32 87,61 82,62 72,59 71,51 53,30 25,21 24,25 38,56 58,76 55,89 41,92 39,95 49,96 55,94 55,97 47,100 47,104 58,101 65,112 60,121 51,130 37,135 16,134 11,139 16,144 28,147 58,149 46,179 26,202 16,219 13,230 14,242 22,248 30,246 35,240 39,220 47,205 61,192 70,190 83,204 100,206 104,219 107,222 110,238 127,248 147,251 152,246 152,240 127,219 114,196 122,184 136,184 170,197 179,206 192,226 176,232 172,236 172,240 175,243 189,244"
        stroke="black" />
    <polygon fill="rgb(173,172,173)" points="99,67 91,60 97,27 103,13 108,32 108,48 102,57 101,67"
        stroke="black" />
    <polygon fill="rgb(163,160,162)"
        points="189,240 182,240 179,237 198,229 199,225 193,220 181,200 171,191 138,177 124,176 118,178 112,184 104,197 90,199 70,180 67,172 68,165 74,165 87,182 97,185 107,166 112,161 139,153 148,146 150,138 145,130 98,132 89,130 87,127 92,122 103,117 129,112 136,108 136,104 133,101 121,97 113,89 126,85 125,81 115,84 108,82 108,75 119,76 119,72 106,70 107,60 112,52 123,45 137,45 141,43 153,30 177,14 184,15 184,18 158,36 153,42 154,47 167,46 201,32 215,36 212,43 179,51 171,49 169,52 182,68 184,81 182,86 168,98 167,102 181,122 195,137 198,149 197,190 207,210 207,224 204,231 198,237"
        stroke="black" />
    <polygon fill="rgb(171,156,76)" points="62,74 59,74 54,69 46,56 37,32 50,36 66,51 69,65"
        stroke="black" />
    <polygon fill="rgb(217,211,216)"
        points="216,142 209,127 209,118 217,99 229,79 233,64 241,56 248,66 230,97 219,139"
        stroke="black" />
    <polygon fill="rgb(67,63,66)" points="128,69 128,66 121,64 117,60 114,61 119,67" stroke="black" />
    <polygon fill="rgb(78,67,76)" points="170,77 170,74 158,74 157,71 153,73 143,72 146,76 165,79"
        stroke="black" />
    <polygon fill="rgb(57,45,55)" points="130,83 134,84 136,79 132,79" stroke="black" />
    <polygon fill="rgb(96,75,91)" points="152,79 150,80" stroke="black" />
    <polygon fill="rgb(88,69,84)" points="172,91 172,87 162,84 147,84 147,86" stroke="black" />
    <polygon fill="rgb(94,73,89)" points="159,97 159,93 152,92 142,85 139,87 144,93" stroke="black" />
    <polygon fill="rgb(31,25,30)" points="72,101 79,96 79,91 82,88 86,94 94,94 92,99 83,97 78,103"
        stroke="black" />
    <polygon fill="rgb(115,115,115)" points="108,108 115,96 117,99 130,104 125,107" stroke="black" />
    <polygon fill="rgb(194,194,194)"
        points="103,155 105,151 116,150 128,145 130,142 129,135 141,134 145,136 144,142 139,146 120,150 105,157"
        stroke="black" />
    <polygon fill="rgb(253,253,253)" points="43,196" stroke="black" />
    <polygon fill="rgb(254,254,254)" points="42,197" stroke="black" />
    <polygon fill="rgb(254,253,253)" points="41,198" stroke="black" />
    <polygon fill="rgb(220,220,220)" points="22,239 21,234 25,219 40,199 30,221 29,233 25,239"
        stroke="black" />
    <polygon fill="rgb(199,191,181)"
        points="148,244 145,247 139,247 116,237 112,232 110,219 103,206 111,200 121,219 147,241"
        stroke="black" />
</svg>